  0
SECTION
  2
HEADER
  9
$MEASUREMENT
  70
  1
  9
$INSUNITS
  70
  4
  0
ENDSEC
  0
SECTION
  2
TABLES
  0
TABLE
  2
LTYPE
 70
     1
  0
LTYPE
  2
CONTINUOUS
 70
    64
  3
Ausgezogene Linie
 72
    65
 73
     0
 40
0.0
  0
ENDTAB
  0
TABLE
  2
LAYER
 70
     3
  0
LAYER
  2
Contour
 70
    64
 62
     7
  6
CONTINUOUS
  0
LAYER
  2
Engraving
 70
    64
 62
     7
  6
CONTINUOUS
  0
LAYER
  2
Reference_points
 70
    64
 62
     1
  6
CONTINUOUS
  0
ENDTAB
  0
TABLE
  2
STYLE
 70
     1
  0
STYLE
  2
TXT
 70
    64
 40
0.0
 41
1.0
 50
0.0
 71
     0
 42
3.500000
  3
TXT
  0
ENDTAB
  0
ENDSEC
  0
SECTION
  2
BLOCKS
  0
ENDSEC
  0
SECTION
  2
ENTITIES
  0
LINE
  8
Contour
 62
   7
 39
0.100
  6
CONTINUOUS
 10
30.14000
 20
128.40000
 30
 0
 11
30.14000
 21
0.00000
  0
LINE
  8
Contour
 62
   7
 39
0.100
  6
CONTINUOUS
 10
30.14000
 20
0.00000
 30
 0
 11
0.00000
 21
0.00000
  0
LINE
  8
Contour
 62
   7
 39
0.100
  6
CONTINUOUS
 10
0.00000
 20
0.00000
 30
 0
 11
0.00000
 21
128.40000
  0
LINE
  8
Contour
 62
   7
 39
0.100
  6
CONTINUOUS
 10
0.00000
 20
128.40000
 30
 0
 11
30.14000
 21
128.40000
  0
LINE
  8
Engraving
 62
   7
 39
0.400
  6
CONTINUOUS
 10
5.76668
 20
96.90530
 30
 0
 11
5.76668
 21
97.20802
  0
LINE
  8
Engraving
 62
   7
 39
0.400
  6
CONTINUOUS
 10
5.76668
 20
97.20802
 30
 0
 11
5.74650
 21
97.34928
  0
LINE
  8
Engraving
 62
   7
 39
0.400
  6
CONTINUOUS
 10
5.74650
 20
97.34928
 30
 0
 11
5.68595
 21
97.49055
  0
LINE
  8
Engraving
 62
   7
 39
0.400
  6
CONTINUOUS
 10
5.68595
 20
97.49055
 30
 0
 11
5.58505
 21
97.57128
  0
LINE
  8
Engraving
 62
   7
 39
0.400
  6
CONTINUOUS
 10
5.58505
 20
97.57128
 30
 0
 11
5.48414
 21
97.63182
  0
LINE
  8
Engraving
 62
   7
 39
0.400
  6
CONTINUOUS
 10
5.48414
 20
97.63182
 30
 0
 11
5.36306
 21
97.67218
  0
LINE
  8
Engraving
 62
   7
 39
0.400
  6
CONTINUOUS
 10
5.36306
 20
97.67218
 30
 0
 11
5.08052
 21
97.67218
  0
LINE
  8
Engraving
 62
   7
 39
0.400
  6
CONTINUOUS
 10
5.08052
 20
97.67218
 30
 0
 11
4.89889
 21
97.65200
  0
LINE
  8
Engraving
 62
   7
 39
0.400
  6
CONTINUOUS
 10
4.89889
 20
97.65200
 30
 0
 11
4.75762
 21
97.55109
  0
LINE
  8
Engraving
 62
   7
 39
0.400
  6
CONTINUOUS
 10
4.75762
 20
97.55109
 30
 0
 11
4.67690
 21
97.43001
  0
LINE
  8
Engraving
 62
   7
 39
0.400
  6
CONTINUOUS
 10
4.67690
 20
97.43001
 30
 0
 11
4.61635
 21
97.26856
  0
LINE
  8
Engraving
 62
   7
 39
0.400
  6
CONTINUOUS
 10
4.61635
 20
97.26856
 30
 0
 11
4.61635
 21
95.55317
  0
LINE
  8
Engraving
 62
   7
 39
0.400
  6
CONTINUOUS
 10
4.61635
 20
95.55317
 30
 0
 11
4.65672
 21
95.37154
  0
LINE
  8
Engraving
 62
   7
 39
0.400
  6
CONTINUOUS
 10
4.65672
 20
95.37154
 30
 0
 11
4.71726
 21
95.25045
  0
LINE
  8
Engraving
 62
   7
 39
0.400
  6
CONTINUOUS
 10
4.71726
 20
95.25045
 30
 0
 11
4.83835
 21
95.14954
  0
LINE
  8
Engraving
 62
   7
 39
0.400
  6
CONTINUOUS
 10
4.83835
 20
95.14954
 30
 0
 11
4.93925
 21
95.08900
  0
LINE
  8
Engraving
 62
   7
 39
0.400
  6
CONTINUOUS
 10
4.93925
 20
95.08900
 30
 0
 11
5.10070
 21
95.06882
  0
LINE
  8
Engraving
 62
   7
 39
0.400
  6
CONTINUOUS
 10
5.10070
 20
95.06882
 30
 0
 11
5.30251
 21
95.06882
  0
LINE
  8
Engraving
 62
   7
 39
0.400
  6
CONTINUOUS
 10
5.30251
 20
95.06882
 30
 0
 11
5.44378
 21
95.08900
  0
LINE
  8
Engraving
 62
   7
 39
0.400
  6
CONTINUOUS
 10
5.44378
 20
95.08900
 30
 0
 11
5.60523
 21
95.16972
  0
LINE
  8
Engraving
 62
   7
 39
0.400
  6
CONTINUOUS
 10
5.60523
 20
95.16972
 30
 0
 11
5.70613
 21
95.27063
  0
LINE
  8
Engraving
 62
   7
 39
0.400
  6
CONTINUOUS
 10
5.70613
 20
95.27063
 30
 0
 11
5.78686
 21
95.43208
  0
LINE
  8
Engraving
 62
   7
 39
0.400
  6
CONTINUOUS
 10
5.78686
 20
95.43208
 30
 0
 11
5.78686
 21
95.55317
  0
LINE
  8
Engraving
 62
   7
 39
0.400
  6
CONTINUOUS
 10
5.78686
 20
95.55317
 30
 0
 11
5.78686
 21
95.79534
  0
LINE
  8
Engraving
 62
   7
 39
0.400
  6
CONTINUOUS
 10
6.31235
 20
97.65200
 30
 0
 11
7.03887
 21
95.08900
  0
LINE
  8
Engraving
 62
   7
 39
0.400
  6
CONTINUOUS
 10
7.03887
 20
95.08900
 30
 0
 11
7.76539
 21
97.65200
  0
LINE
  8
Engraving
 62
   7
 39
0.400
  6
CONTINUOUS
 10
23.54668
 20
96.90530
 30
 0
 11
23.54668
 21
97.20802
  0
LINE
  8
Engraving
 62
   7
 39
0.400
  6
CONTINUOUS
 10
23.54668
 20
97.20802
 30
 0
 11
23.52650
 21
97.34928
  0
LINE
  8
Engraving
 62
   7
 39
0.400
  6
CONTINUOUS
 10
23.52650
 20
97.34928
 30
 0
 11
23.46595
 21
97.49055
  0
LINE
  8
Engraving
 62
   7
 39
0.400
  6
CONTINUOUS
 10
23.46595
 20
97.49055
 30
 0
 11
23.36505
 21
97.57128
  0
LINE
  8
Engraving
 62
   7
 39
0.400
  6
CONTINUOUS
 10
23.36505
 20
97.57128
 30
 0
 11
23.26414
 21
97.63182
  0
LINE
  8
Engraving
 62
   7
 39
0.400
  6
CONTINUOUS
 10
23.26414
 20
97.63182
 30
 0
 11
23.14306
 21
97.67218
  0
LINE
  8
Engraving
 62
   7
 39
0.400
  6
CONTINUOUS
 10
23.14306
 20
97.67218
 30
 0
 11
22.86052
 21
97.67218
  0
LINE
  8
Engraving
 62
   7
 39
0.400
  6
CONTINUOUS
 10
22.86052
 20
97.67218
 30
 0
 11
22.67889
 21
97.65200
  0
LINE
  8
Engraving
 62
   7
 39
0.400
  6
CONTINUOUS
 10
22.67889
 20
97.65200
 30
 0
 11
22.53762
 21
97.55109
  0
LINE
  8
Engraving
 62
   7
 39
0.400
  6
CONTINUOUS
 10
22.53762
 20
97.55109
 30
 0
 11
22.45690
 21
97.43001
  0
LINE
  8
Engraving
 62
   7
 39
0.400
  6
CONTINUOUS
 10
22.45690
 20
97.43001
 30
 0
 11
22.39635
 21
97.26856
  0
LINE
  8
Engraving
 62
   7
 39
0.400
  6
CONTINUOUS
 10
22.39635
 20
97.26856
 30
 0
 11
22.39635
 21
95.55317
  0
LINE
  8
Engraving
 62
   7
 39
0.400
  6
CONTINUOUS
 10
22.39635
 20
95.55317
 30
 0
 11
22.43672
 21
95.37154
  0
LINE
  8
Engraving
 62
   7
 39
0.400
  6
CONTINUOUS
 10
22.43672
 20
95.37154
 30
 0
 11
22.49726
 21
95.25045
  0
LINE
  8
Engraving
 62
   7
 39
0.400
  6
CONTINUOUS
 10
22.49726
 20
95.25045
 30
 0
 11
22.61835
 21
95.14954
  0
LINE
  8
Engraving
 62
   7
 39
0.400
  6
CONTINUOUS
 10
22.61835
 20
95.14954
 30
 0
 11
22.71925
 21
95.08900
  0
LINE
  8
Engraving
 62
   7
 39
0.400
  6
CONTINUOUS
 10
22.71925
 20
95.08900
 30
 0
 11
22.88070
 21
95.06882
  0
LINE
  8
Engraving
 62
   7
 39
0.400
  6
CONTINUOUS
 10
22.88070
 20
95.06882
 30
 0
 11
23.08251
 21
95.06882
  0
LINE
  8
Engraving
 62
   7
 39
0.400
  6
CONTINUOUS
 10
23.08251
 20
95.06882
 30
 0
 11
23.22378
 21
95.08900
  0
LINE
  8
Engraving
 62
   7
 39
0.400
  6
CONTINUOUS
 10
23.22378
 20
95.08900
 30
 0
 11
23.38523
 21
95.16972
  0
LINE
  8
Engraving
 62
   7
 39
0.400
  6
CONTINUOUS
 10
23.38523
 20
95.16972
 30
 0
 11
23.48613
 21
95.27063
  0
LINE
  8
Engraving
 62
   7
 39
0.400
  6
CONTINUOUS
 10
23.48613
 20
95.27063
 30
 0
 11
23.56686
 21
95.43208
  0
LINE
  8
Engraving
 62
   7
 39
0.400
  6
CONTINUOUS
 10
23.56686
 20
95.43208
 30
 0
 11
23.56686
 21
95.55317
  0
LINE
  8
Engraving
 62
   7
 39
0.400
  6
CONTINUOUS
 10
23.56686
 20
95.55317
 30
 0
 11
23.56686
 21
95.79534
  0
LINE
  8
Engraving
 62
   7
 39
0.400
  6
CONTINUOUS
 10
24.09235
 20
97.65200
 30
 0
 11
24.81887
 21
95.08900
  0
LINE
  8
Engraving
 62
   7
 39
0.400
  6
CONTINUOUS
 10
24.81887
 20
95.08900
 30
 0
 11
25.54539
 21
97.65200
  0
LINE
  8
Engraving
 62
   7
 39
0.400
  6
CONTINUOUS
 10
10.72877
 20
65.01200
 30
 0
 11
9.67935
 21
65.01200
  0
LINE
  8
Engraving
 62
   7
 39
0.400
  6
CONTINUOUS
 10
9.67935
 20
65.01200
 30
 0
 11
9.67935
 21
62.44900
  0
LINE
  8
Engraving
 62
   7
 39
0.400
  6
CONTINUOUS
 10
10.68841
 20
63.76077
 30
 0
 11
9.67935
 21
63.76077
  0
LINE
  8
Engraving
 62
   7
 39
0.400
  6
CONTINUOUS
 10
11.25435
 20
63.76077
 30
 0
 11
12.32395
 21
63.76077
  0
LINE
  8
Engraving
 62
   7
 39
0.400
  6
CONTINUOUS
 10
12.32395
 20
63.76077
 30
 0
 11
12.38450
 21
63.72041
  0
LINE
  8
Engraving
 62
   7
 39
0.400
  6
CONTINUOUS
 10
12.38450
 20
63.72041
 30
 0
 11
12.44504
 21
63.61950
  0
LINE
  8
Engraving
 62
   7
 39
0.400
  6
CONTINUOUS
 10
12.44504
 20
63.61950
 30
 0
 11
12.48540
 21
63.51860
  0
LINE
  8
Engraving
 62
   7
 39
0.400
  6
CONTINUOUS
 10
12.48540
 20
63.51860
 30
 0
 11
12.50558
 21
63.37733
  0
LINE
  8
Engraving
 62
   7
 39
0.400
  6
CONTINUOUS
 10
12.50558
 20
63.37733
 30
 0
 11
12.50558
 21
62.93335
  0
LINE
  8
Engraving
 62
   7
 39
0.400
  6
CONTINUOUS
 10
12.50558
 20
62.93335
 30
 0
 11
12.50558
 21
62.83244
  0
LINE
  8
Engraving
 62
   7
 39
0.400
  6
CONTINUOUS
 10
12.50558
 20
62.83244
 30
 0
 11
12.44504
 21
62.69117
  0
LINE
  8
Engraving
 62
   7
 39
0.400
  6
CONTINUOUS
 10
12.44504
 20
62.69117
 30
 0
 11
12.34413
 21
62.57009
  0
LINE
  8
Engraving
 62
   7
 39
0.400
  6
CONTINUOUS
 10
12.34413
 20
62.57009
 30
 0
 11
12.18269
 21
62.46918
  0
LINE
  8
Engraving
 62
   7
 39
0.400
  6
CONTINUOUS
 10
12.18269
 20
62.46918
 30
 0
 11
12.02124
 21
62.44900
  0
LINE
  8
Engraving
 62
   7
 39
0.400
  6
CONTINUOUS
 10
12.02124
 20
62.44900
 30
 0
 11
11.25435
 21
62.44900
  0
LINE
  8
Engraving
 62
   7
 39
0.400
  6
CONTINUOUS
 10
11.25435
 20
62.44900
 30
 0
 11
11.25435
 21
63.76077
  0
LINE
  8
Engraving
 62
   7
 39
0.400
  6
CONTINUOUS
 10
11.25435
 20
63.76077
 30
 0
 11
11.25435
 21
65.01200
  0
LINE
  8
Engraving
 62
   7
 39
0.400
  6
CONTINUOUS
 10
11.25435
 20
65.01200
 30
 0
 11
12.02124
 21
65.01200
  0
LINE
  8
Engraving
 62
   7
 39
0.400
  6
CONTINUOUS
 10
12.02124
 20
65.01200
 30
 0
 11
12.14232
 21
64.99182
  0
LINE
  8
Engraving
 62
   7
 39
0.400
  6
CONTINUOUS
 10
12.14232
 20
64.99182
 30
 0
 11
12.30377
 21
64.91109
  0
LINE
  8
Engraving
 62
   7
 39
0.400
  6
CONTINUOUS
 10
12.30377
 20
64.91109
 30
 0
 11
12.40468
 21
64.81019
  0
LINE
  8
Engraving
 62
   7
 39
0.400
  6
CONTINUOUS
 10
12.40468
 20
64.81019
 30
 0
 11
12.46522
 21
64.68910
  0
LINE
  8
Engraving
 62
   7
 39
0.400
  6
CONTINUOUS
 10
12.46522
 20
64.68910
 30
 0
 11
12.48540
 21
64.54783
  0
LINE
  8
Engraving
 62
   7
 39
0.400
  6
CONTINUOUS
 10
12.48540
 20
64.54783
 30
 0
 11
12.48540
 21
64.10385
  0
LINE
  8
Engraving
 62
   7
 39
0.400
  6
CONTINUOUS
 10
12.48540
 20
64.10385
 30
 0
 11
12.48540
 21
64.04331
  0
LINE
  8
Engraving
 62
   7
 39
0.400
  6
CONTINUOUS
 10
12.48540
 20
64.04331
 30
 0
 11
12.44504
 21
63.92222
  0
LINE
  8
Engraving
 62
   7
 39
0.400
  6
CONTINUOUS
 10
12.44504
 20
63.92222
 30
 0
 11
12.40468
 21
63.84150
  0
LINE
  8
Engraving
 62
   7
 39
0.400
  6
CONTINUOUS
 10
12.40468
 20
63.84150
 30
 0
 11
12.32395
 21
63.76077
  0
LINE
  8
Engraving
 62
   7
 39
0.400
  6
CONTINUOUS
 10
13.02935
 20
65.01300
 30
 0
 11
13.02935
 21
62.45000
  0
LINE
  8
Engraving
 62
   7
 39
0.400
  6
CONTINUOUS
 10
14.28058
 20
65.01300
 30
 0
 11
13.02935
 21
63.84250
  0
LINE
  8
Engraving
 62
   7
 39
0.400
  6
CONTINUOUS
 10
13.02935
 20
63.84250
 30
 0
 11
14.32094
 21
62.45000
  0
LINE
  8
Engraving
 62
   7
 39
0.400
  6
CONTINUOUS
 10
20.44035
 20
88.98200
 30
 0
 11
20.44035
 21
86.41900
  0
LINE
  8
Engraving
 62
   7
 39
0.400
  6
CONTINUOUS
 10
20.44035
 20
86.41900
 30
 0
 11
21.44941
 21
86.41900
  0
LINE
  8
Engraving
 62
   7
 39
0.400
  6
CONTINUOUS
 10
21.97435
 20
88.98200
 30
 0
 11
22.70087
 21
86.41900
  0
LINE
  8
Engraving
 62
   7
 39
0.400
  6
CONTINUOUS
 10
22.70087
 20
86.41900
 30
 0
 11
23.42739
 21
88.98200
  0
LINE
  8
Engraving
 62
   7
 39
0.400
  6
CONTINUOUS
 10
23.95135
 20
88.98200
 30
 0
 11
23.95135
 21
86.41900
  0
LINE
  8
Engraving
 62
   7
 39
0.400
  6
CONTINUOUS
 10
23.95135
 20
86.41900
 30
 0
 11
24.96041
 21
86.41900
  0
LINE
  8
Engraving
 62
   7
 39
0.400
  6
CONTINUOUS
 10
5.20035
 20
88.98200
 30
 0
 11
5.20035
 21
86.41900
  0
LINE
  8
Engraving
 62
   7
 39
0.400
  6
CONTINUOUS
 10
5.20035
 20
86.41900
 30
 0
 11
6.20941
 21
86.41900
  0
LINE
  8
Engraving
 62
   7
 39
0.400
  6
CONTINUOUS
 10
6.73435
 20
88.98200
 30
 0
 11
7.46087
 21
86.41900
  0
LINE
  8
Engraving
 62
   7
 39
0.400
  6
CONTINUOUS
 10
7.46087
 20
86.41900
 30
 0
 11
8.18739
 21
88.98200
  0
LINE
  8
Engraving
 62
   7
 39
0.400
  6
CONTINUOUS
 10
8.71135
 20
88.98200
 30
 0
 11
8.71135
 21
86.41900
  0
LINE
  8
Engraving
 62
   7
 39
0.400
  6
CONTINUOUS
 10
8.71135
 20
86.41900
 30
 0
 11
9.72041
 21
86.41900
  0
LINE
  8
Engraving
 62
   7
 39
0.400
  6
CONTINUOUS
 10
3.70835
 20
113.65200
 30
 0
 11
4.43487
 21
111.08900
  0
LINE
  8
Engraving
 62
   7
 39
0.400
  6
CONTINUOUS
 10
4.43487
 20
111.08900
 30
 0
 11
5.16139
 21
113.65200
  0
LINE
  8
Engraving
 62
   7
 39
0.400
  6
CONTINUOUS
 10
6.83668
 20
112.90530
 30
 0
 11
6.83668
 21
113.20802
  0
LINE
  8
Engraving
 62
   7
 39
0.400
  6
CONTINUOUS
 10
6.83668
 20
113.20802
 30
 0
 11
6.81650
 21
113.34928
  0
LINE
  8
Engraving
 62
   7
 39
0.400
  6
CONTINUOUS
 10
6.81650
 20
113.34928
 30
 0
 11
6.75595
 21
113.49055
  0
LINE
  8
Engraving
 62
   7
 39
0.400
  6
CONTINUOUS
 10
6.75595
 20
113.49055
 30
 0
 11
6.65505
 21
113.57128
  0
LINE
  8
Engraving
 62
   7
 39
0.400
  6
CONTINUOUS
 10
6.65505
 20
113.57128
 30
 0
 11
6.55414
 21
113.63182
  0
LINE
  8
Engraving
 62
   7
 39
0.400
  6
CONTINUOUS
 10
6.55414
 20
113.63182
 30
 0
 11
6.43306
 21
113.67218
  0
LINE
  8
Engraving
 62
   7
 39
0.400
  6
CONTINUOUS
 10
6.43306
 20
113.67218
 30
 0
 11
6.15052
 21
113.67218
  0
LINE
  8
Engraving
 62
   7
 39
0.400
  6
CONTINUOUS
 10
6.15052
 20
113.67218
 30
 0
 11
5.96889
 21
113.65200
  0
LINE
  8
Engraving
 62
   7
 39
0.400
  6
CONTINUOUS
 10
5.96889
 20
113.65200
 30
 0
 11
5.82762
 21
113.55109
  0
LINE
  8
Engraving
 62
   7
 39
0.400
  6
CONTINUOUS
 10
5.82762
 20
113.55109
 30
 0
 11
5.74690
 21
113.43001
  0
LINE
  8
Engraving
 62
   7
 39
0.400
  6
CONTINUOUS
 10
5.74690
 20
113.43001
 30
 0
 11
5.68635
 21
113.26856
  0
LINE
  8
Engraving
 62
   7
 39
0.400
  6
CONTINUOUS
 10
5.68635
 20
113.26856
 30
 0
 11
5.68635
 21
111.55317
  0
LINE
  8
Engraving
 62
   7
 39
0.400
  6
CONTINUOUS
 10
5.68635
 20
111.55317
 30
 0
 11
5.72672
 21
111.37154
  0
LINE
  8
Engraving
 62
   7
 39
0.400
  6
CONTINUOUS
 10
5.72672
 20
111.37154
 30
 0
 11
5.78726
 21
111.25045
  0
LINE
  8
Engraving
 62
   7
 39
0.400
  6
CONTINUOUS
 10
5.78726
 20
111.25045
 30
 0
 11
5.90835
 21
111.14954
  0
LINE
  8
Engraving
 62
   7
 39
0.400
  6
CONTINUOUS
 10
5.90835
 20
111.14954
 30
 0
 11
6.00925
 21
111.08900
  0
LINE
  8
Engraving
 62
   7
 39
0.400
  6
CONTINUOUS
 10
6.00925
 20
111.08900
 30
 0
 11
6.17070
 21
111.06882
  0
LINE
  8
Engraving
 62
   7
 39
0.400
  6
CONTINUOUS
 10
6.17070
 20
111.06882
 30
 0
 11
6.37251
 21
111.06882
  0
LINE
  8
Engraving
 62
   7
 39
0.400
  6
CONTINUOUS
 10
6.37251
 20
111.06882
 30
 0
 11
6.51378
 21
111.08900
  0
LINE
  8
Engraving
 62
   7
 39
0.400
  6
CONTINUOUS
 10
6.51378
 20
111.08900
 30
 0
 11
6.67523
 21
111.16972
  0
LINE
  8
Engraving
 62
   7
 39
0.400
  6
CONTINUOUS
 10
6.67523
 20
111.16972
 30
 0
 11
6.77613
 21
111.27063
  0
LINE
  8
Engraving
 62
   7
 39
0.400
  6
CONTINUOUS
 10
6.77613
 20
111.27063
 30
 0
 11
6.85686
 21
111.43208
  0
LINE
  8
Engraving
 62
   7
 39
0.400
  6
CONTINUOUS
 10
6.85686
 20
111.43208
 30
 0
 11
6.85686
 21
111.55317
  0
LINE
  8
Engraving
 62
   7
 39
0.400
  6
CONTINUOUS
 10
6.85686
 20
111.55317
 30
 0
 11
6.85686
 21
111.79534
  0
LINE
  8
Engraving
 62
   7
 39
0.400
  6
CONTINUOUS
 10
7.36117
 20
112.38059
 30
 0
 11
7.36117
 21
111.55317
  0
LINE
  8
Engraving
 62
   7
 39
0.400
  6
CONTINUOUS
 10
7.36117
 20
111.55317
 30
 0
 11
7.40154
 21
111.35135
  0
LINE
  8
Engraving
 62
   7
 39
0.400
  6
CONTINUOUS
 10
7.40154
 20
111.35135
 30
 0
 11
7.48226
 21
111.23027
  0
LINE
  8
Engraving
 62
   7
 39
0.400
  6
CONTINUOUS
 10
7.48226
 20
111.23027
 30
 0
 11
7.58317
 21
111.14954
  0
LINE
  8
Engraving
 62
   7
 39
0.400
  6
CONTINUOUS
 10
7.58317
 20
111.14954
 30
 0
 11
7.72443
 21
111.06882
  0
LINE
  8
Engraving
 62
   7
 39
0.400
  6
CONTINUOUS
 10
7.72443
 20
111.06882
 30
 0
 11
7.84552
 21
111.06882
  0
LINE
  8
Engraving
 62
   7
 39
0.400
  6
CONTINUOUS
 10
7.84552
 20
111.06882
 30
 0
 11
8.16842
 21
111.06882
  0
LINE
  8
Engraving
 62
   7
 39
0.400
  6
CONTINUOUS
 10
8.16842
 20
111.06882
 30
 0
 11
8.35005
 21
111.08900
  0
LINE
  8
Engraving
 62
   7
 39
0.400
  6
CONTINUOUS
 10
8.35005
 20
111.08900
 30
 0
 11
8.49131
 21
111.16972
  0
LINE
  8
Engraving
 62
   7
 39
0.400
  6
CONTINUOUS
 10
8.49131
 20
111.16972
 30
 0
 11
8.61240
 21
111.33117
  0
LINE
  8
Engraving
 62
   7
 39
0.400
  6
CONTINUOUS
 10
8.61240
 20
111.33117
 30
 0
 11
8.67294
 21
111.55317
  0
LINE
  8
Engraving
 62
   7
 39
0.400
  6
CONTINUOUS
 10
8.67294
 20
111.55317
 30
 0
 11
8.67294
 21
113.18783
  0
LINE
  8
Engraving
 62
   7
 39
0.400
  6
CONTINUOUS
 10
8.67294
 20
113.18783
 30
 0
 11
8.63258
 21
113.34928
  0
LINE
  8
Engraving
 62
   7
 39
0.400
  6
CONTINUOUS
 10
8.63258
 20
113.34928
 30
 0
 11
8.55186
 21
113.51073
  0
LINE
  8
Engraving
 62
   7
 39
0.400
  6
CONTINUOUS
 10
8.55186
 20
113.51073
 30
 0
 11
8.45095
 21
113.59146
  0
LINE
  8
Engraving
 62
   7
 39
0.400
  6
CONTINUOUS
 10
8.45095
 20
113.59146
 30
 0
 11
8.35005
 21
113.65200
  0
LINE
  8
Engraving
 62
   7
 39
0.400
  6
CONTINUOUS
 10
8.35005
 20
113.65200
 30
 0
 11
8.16842
 21
113.67218
  0
LINE
  8
Engraving
 62
   7
 39
0.400
  6
CONTINUOUS
 10
8.16842
 20
113.67218
 30
 0
 11
7.84552
 21
113.67218
  0
LINE
  8
Engraving
 62
   7
 39
0.400
  6
CONTINUOUS
 10
7.84552
 20
113.67218
 30
 0
 11
7.68407
 21
113.65200
  0
LINE
  8
Engraving
 62
   7
 39
0.400
  6
CONTINUOUS
 10
7.68407
 20
113.65200
 30
 0
 11
7.54280
 21
113.57128
  0
LINE
  8
Engraving
 62
   7
 39
0.400
  6
CONTINUOUS
 10
7.54280
 20
113.57128
 30
 0
 11
7.44190
 21
113.47037
  0
LINE
  8
Engraving
 62
   7
 39
0.400
  6
CONTINUOUS
 10
7.44190
 20
113.47037
 30
 0
 11
7.38135
 21
113.34928
  0
LINE
  8
Engraving
 62
   7
 39
0.400
  6
CONTINUOUS
 10
7.38135
 20
113.34928
 30
 0
 11
7.36117
 21
113.18783
  0
LINE
  8
Engraving
 62
   7
 39
0.400
  6
CONTINUOUS
 10
7.36117
 20
113.18783
 30
 0
 11
7.36117
 21
112.38059
  0
LINE
  8
Engraving
 62
   7
 39
0.400
  6
CONTINUOUS
 10
21.60935
 20
113.65200
 30
 0
 11
22.33587
 21
111.08900
  0
LINE
  8
Engraving
 62
   7
 39
0.400
  6
CONTINUOUS
 10
22.33587
 20
111.08900
 30
 0
 11
23.06239
 21
113.65200
  0
LINE
  8
Engraving
 62
   7
 39
0.400
  6
CONTINUOUS
 10
24.73768
 20
112.90530
 30
 0
 11
24.73768
 21
113.20802
  0
LINE
  8
Engraving
 62
   7
 39
0.400
  6
CONTINUOUS
 10
24.73768
 20
113.20802
 30
 0
 11
24.71750
 21
113.34928
  0
LINE
  8
Engraving
 62
   7
 39
0.400
  6
CONTINUOUS
 10
24.71750
 20
113.34928
 30
 0
 11
24.65695
 21
113.49055
  0
LINE
  8
Engraving
 62
   7
 39
0.400
  6
CONTINUOUS
 10
24.65695
 20
113.49055
 30
 0
 11
24.55605
 21
113.57128
  0
LINE
  8
Engraving
 62
   7
 39
0.400
  6
CONTINUOUS
 10
24.55605
 20
113.57128
 30
 0
 11
24.45514
 21
113.63182
  0
LINE
  8
Engraving
 62
   7
 39
0.400
  6
CONTINUOUS
 10
24.45514
 20
113.63182
 30
 0
 11
24.33406
 21
113.67218
  0
LINE
  8
Engraving
 62
   7
 39
0.400
  6
CONTINUOUS
 10
24.33406
 20
113.67218
 30
 0
 11
24.05152
 21
113.67218
  0
LINE
  8
Engraving
 62
   7
 39
0.400
  6
CONTINUOUS
 10
24.05152
 20
113.67218
 30
 0
 11
23.86989
 21
113.65200
  0
LINE
  8
Engraving
 62
   7
 39
0.400
  6
CONTINUOUS
 10
23.86989
 20
113.65200
 30
 0
 11
23.72862
 21
113.55109
  0
LINE
  8
Engraving
 62
   7
 39
0.400
  6
CONTINUOUS
 10
23.72862
 20
113.55109
 30
 0
 11
23.64790
 21
113.43001
  0
LINE
  8
Engraving
 62
   7
 39
0.400
  6
CONTINUOUS
 10
23.64790
 20
113.43001
 30
 0
 11
23.58735
 21
113.26856
  0
LINE
  8
Engraving
 62
   7
 39
0.400
  6
CONTINUOUS
 10
23.58735
 20
113.26856
 30
 0
 11
23.58735
 21
111.55317
  0
LINE
  8
Engraving
 62
   7
 39
0.400
  6
CONTINUOUS
 10
23.58735
 20
111.55317
 30
 0
 11
23.62772
 21
111.37154
  0
LINE
  8
Engraving
 62
   7
 39
0.400
  6
CONTINUOUS
 10
23.62772
 20
111.37154
 30
 0
 11
23.68826
 21
111.25045
  0
LINE
  8
Engraving
 62
   7
 39
0.400
  6
CONTINUOUS
 10
23.68826
 20
111.25045
 30
 0
 11
23.80935
 21
111.14954
  0
LINE
  8
Engraving
 62
   7
 39
0.400
  6
CONTINUOUS
 10
23.80935
 20
111.14954
 30
 0
 11
23.91025
 21
111.08900
  0
LINE
  8
Engraving
 62
   7
 39
0.400
  6
CONTINUOUS
 10
23.91025
 20
111.08900
 30
 0
 11
24.07170
 21
111.06882
  0
LINE
  8
Engraving
 62
   7
 39
0.400
  6
CONTINUOUS
 10
24.07170
 20
111.06882
 30
 0
 11
24.27351
 21
111.06882
  0
LINE
  8
Engraving
 62
   7
 39
0.400
  6
CONTINUOUS
 10
24.27351
 20
111.06882
 30
 0
 11
24.41478
 21
111.08900
  0
LINE
  8
Engraving
 62
   7
 39
0.400
  6
CONTINUOUS
 10
24.41478
 20
111.08900
 30
 0
 11
24.57623
 21
111.16972
  0
LINE
  8
Engraving
 62
   7
 39
0.400
  6
CONTINUOUS
 10
24.57623
 20
111.16972
 30
 0
 11
24.67713
 21
111.27063
  0
LINE
  8
Engraving
 62
   7
 39
0.400
  6
CONTINUOUS
 10
24.67713
 20
111.27063
 30
 0
 11
24.75786
 21
111.43208
  0
LINE
  8
Engraving
 62
   7
 39
0.400
  6
CONTINUOUS
 10
24.75786
 20
111.43208
 30
 0
 11
24.75786
 21
111.55317
  0
LINE
  8
Engraving
 62
   7
 39
0.400
  6
CONTINUOUS
 10
24.75786
 20
111.55317
 30
 0
 11
24.75786
 21
111.79534
  0
LINE
  8
Engraving
 62
   7
 39
0.400
  6
CONTINUOUS
 10
26.33177
 20
113.65200
 30
 0
 11
25.28235
 21
113.65200
  0
LINE
  8
Engraving
 62
   7
 39
0.400
  6
CONTINUOUS
 10
25.28235
 20
113.65200
 30
 0
 11
25.28235
 21
111.08900
  0
LINE
  8
Engraving
 62
   7
 39
0.400
  6
CONTINUOUS
 10
26.29141
 20
112.40077
 30
 0
 11
25.28235
 21
112.40077
  0
ARC
  8
Engraving
 62
   7
 39
0.400
  6
CONTINUOUS
 10
22.29402
 20
15.69833
 30
 0
 40
0.91129
 50
180.00000
 51
360.00000
  0
LINE
  8
Engraving
 62
   7
 39
0.400
  6
CONTINUOUS
 10
23.20531
 20
15.69833
 30
 0
 11
23.20531
 21
16.55267
  0
ARC
  8
Engraving
 62
   7
 39
0.400
  6
CONTINUOUS
 10
22.29402
 20
16.55267
 30
 0
 40
0.91129
 50
0.00000
 51
180.00000
  0
LINE
  8
Engraving
 62
   7
 39
0.400
  6
CONTINUOUS
 10
21.38273
 20
16.55267
 30
 0
 11
21.38273
 21
15.69833
  0
LINE
  8
Engraving
 62
   7
 39
0.400
  6
CONTINUOUS
 10
23.88973
 20
17.40700
 30
 0
 11
23.88973
 21
15.64138
  0
ARC
  8
Engraving
 62
   7
 39
0.400
  6
CONTINUOUS
 10
24.74407
 20
15.64138
 30
 0
 40
0.85433
 50
180.00000
 51
360.00000
  0
LINE
  8
Engraving
 62
   7
 39
0.400
  6
CONTINUOUS
 10
25.59840
 20
15.64138
 30
 0
 11
25.59840
 21
17.40700
  0
LINE
  8
Engraving
 62
   7
 39
0.400
  6
CONTINUOUS
 10
26.28173
 20
17.40700
 30
 0
 11
27.99040
 21
17.40700
  0
LINE
  8
Engraving
 62
   7
 39
0.400
  6
CONTINUOUS
 10
27.99040
 20
17.40700
 30
 0
 11
27.13607
 21
17.40700
  0
LINE
  8
Engraving
 62
   7
 39
0.400
  6
CONTINUOUS
 10
27.13607
 20
17.40700
 30
 0
 11
27.13607
 21
14.84400
  0
LINE
  8
Engraving
 62
   7
 39
0.400
  6
CONTINUOUS
 10
3.89400
 20
10.54977
 30
 0
 11
3.89400
 21
9.50035
  0
LINE
  8
Engraving
 62
   7
 39
0.400
  6
CONTINUOUS
 10
3.89400
 20
9.50035
 30
 0
 11
6.45700
 21
9.50035
  0
LINE
  8
Engraving
 62
   7
 39
0.400
  6
CONTINUOUS
 10
5.14523
 20
10.50941
 30
 0
 11
5.14523
 21
9.50035
  0
LINE
  8
Engraving
 62
   7
 39
0.400
  6
CONTINUOUS
 10
5.54885
 20
11.05417
 30
 0
 11
6.03320
 21
11.05417
  0
LINE
  8
Engraving
 62
   7
 39
0.400
  6
CONTINUOUS
 10
6.03320
 20
11.05417
 30
 0
 11
6.21483
 21
11.09454
  0
LINE
  8
Engraving
 62
   7
 39
0.400
  6
CONTINUOUS
 10
6.21483
 20
11.09454
 30
 0
 11
6.35609
 21
11.19544
  0
LINE
  8
Engraving
 62
   7
 39
0.400
  6
CONTINUOUS
 10
6.35609
 20
11.19544
 30
 0
 11
6.45700
 21
11.37707
  0
LINE
  8
Engraving
 62
   7
 39
0.400
  6
CONTINUOUS
 10
6.45700
 20
11.37707
 30
 0
 11
6.47718
 21
11.51834
  0
LINE
  8
Engraving
 62
   7
 39
0.400
  6
CONTINUOUS
 10
6.47718
 20
11.51834
 30
 0
 11
6.47718
 21
11.69997
  0
LINE
  8
Engraving
 62
   7
 39
0.400
  6
CONTINUOUS
 10
6.47718
 20
11.69997
 30
 0
 11
6.43682
 21
11.86142
  0
LINE
  8
Engraving
 62
   7
 39
0.400
  6
CONTINUOUS
 10
6.43682
 20
11.86142
 30
 0
 11
6.33591
 21
11.98250
  0
LINE
  8
Engraving
 62
   7
 39
0.400
  6
CONTINUOUS
 10
6.33591
 20
11.98250
 30
 0
 11
6.17446
 21
12.08341
  0
LINE
  8
Engraving
 62
   7
 39
0.400
  6
CONTINUOUS
 10
6.17446
 20
12.08341
 30
 0
 11
6.03320
 21
12.12377
  0
LINE
  8
Engraving
 62
   7
 39
0.400
  6
CONTINUOUS
 10
6.03320
 20
12.12377
 30
 0
 11
5.10487
 21
12.12377
  0
LINE
  8
Engraving
 62
   7
 39
0.400
  6
CONTINUOUS
 10
5.10487
 20
12.12377
 30
 0
 11
4.88287
 21
12.06323
  0
LINE
  8
Engraving
 62
   7
 39
0.400
  6
CONTINUOUS
 10
4.88287
 20
12.06323
 30
 0
 11
4.76179
 21
11.96232
  0
LINE
  8
Engraving
 62
   7
 39
0.400
  6
CONTINUOUS
 10
4.76179
 20
11.96232
 30
 0
 11
4.66088
 21
11.82106
  0
LINE
  8
Engraving
 62
   7
 39
0.400
  6
CONTINUOUS
 10
4.66088
 20
11.82106
 30
 0
 11
4.64070
 21
11.65961
  0
LINE
  8
Engraving
 62
   7
 39
0.400
  6
CONTINUOUS
 10
4.64070
 20
11.65961
 30
 0
 11
4.64070
 21
11.51834
  0
LINE
  8
Engraving
 62
   7
 39
0.400
  6
CONTINUOUS
 10
4.64070
 20
11.51834
 30
 0
 11
4.68106
 21
11.31653
  0
LINE
  8
Engraving
 62
   7
 39
0.400
  6
CONTINUOUS
 10
4.68106
 20
11.31653
 30
 0
 11
4.78197
 21
11.17526
  0
LINE
  8
Engraving
 62
   7
 39
0.400
  6
CONTINUOUS
 10
4.78197
 20
11.17526
 30
 0
 11
4.90306
 21
11.09454
  0
LINE
  8
Engraving
 62
   7
 39
0.400
  6
CONTINUOUS
 10
4.90306
 20
11.09454
 30
 0
 11
5.10487
 21
11.05417
  0
LINE
  8
Engraving
 62
   7
 39
0.400
  6
CONTINUOUS
 10
5.10487
 20
11.05417
 30
 0
 11
5.54885
 21
11.05417
  0
LINE
  8
Engraving
 62
   7
 39
0.400
  6
CONTINUOUS
 10
6.45700
 20
12.64835
 30
 0
 11
4.66088
 21
12.64835
  0
LINE
  8
Engraving
 62
   7
 39
0.400
  6
CONTINUOUS
 10
4.66088
 20
12.64835
 30
 0
 11
4.82233
 21
12.64835
  0
LINE
  8
Engraving
 62
   7
 39
0.400
  6
CONTINUOUS
 10
4.82233
 20
12.64835
 30
 0
 11
4.72143
 21
12.87035
  0
LINE
  8
Engraving
 62
   7
 39
0.400
  6
CONTINUOUS
 10
4.72143
 20
12.87035
 30
 0
 11
4.66088
 21
13.01161
  0
LINE
  8
Engraving
 62
   7
 39
0.400
  6
CONTINUOUS
 10
4.66088
 20
13.01161
 30
 0
 11
4.64070
 21
13.19324
  0
LINE
  8
Engraving
 62
   7
 39
0.400
  6
CONTINUOUS
 10
4.64070
 20
13.19324
 30
 0
 11
4.64070
 21
13.35469
  0
LINE
  8
Engraving
 62
   7
 39
0.400
  6
CONTINUOUS
 10
6.45700
 20
13.85835
 30
 0
 11
4.66088
 21
13.85835
  0
LINE
  8
Engraving
 62
   7
 39
0.400
  6
CONTINUOUS
 10
4.66088
 20
13.85835
 30
 0
 11
4.88287
 21
13.85835
  0
LINE
  8
Engraving
 62
   7
 39
0.400
  6
CONTINUOUS
 10
4.88287
 20
13.85835
 30
 0
 11
4.72143
 21
13.97944
  0
LINE
  8
Engraving
 62
   7
 39
0.400
  6
CONTINUOUS
 10
4.72143
 20
13.97944
 30
 0
 11
4.64070
 21
14.12071
  0
LINE
  8
Engraving
 62
   7
 39
0.400
  6
CONTINUOUS
 10
4.64070
 20
14.12071
 30
 0
 11
4.64070
 21
14.22161
  0
LINE
  8
Engraving
 62
   7
 39
0.400
  6
CONTINUOUS
 10
4.64070
 20
14.22161
 30
 0
 11
4.64070
 21
14.40324
  0
LINE
  8
Engraving
 62
   7
 39
0.400
  6
CONTINUOUS
 10
4.64070
 20
14.40324
 30
 0
 11
4.66088
 21
14.52433
  0
LINE
  8
Engraving
 62
   7
 39
0.400
  6
CONTINUOUS
 10
4.66088
 20
14.52433
 30
 0
 11
4.72143
 21
14.68578
  0
LINE
  8
Engraving
 62
   7
 39
0.400
  6
CONTINUOUS
 10
4.72143
 20
14.68578
 30
 0
 11
4.86269
 21
14.76650
  0
LINE
  8
Engraving
 62
   7
 39
0.400
  6
CONTINUOUS
 10
4.86269
 20
14.76650
 30
 0
 11
6.45700
 21
14.76650
  0
LINE
  8
Engraving
 62
   7
 39
0.400
  6
CONTINUOUS
 10
6.45700
 20
14.76650
 30
 0
 11
4.86269
 21
14.76650
  0
LINE
  8
Engraving
 62
   7
 39
0.400
  6
CONTINUOUS
 10
4.86269
 20
14.76650
 30
 0
 11
4.72143
 21
14.88759
  0
LINE
  8
Engraving
 62
   7
 39
0.400
  6
CONTINUOUS
 10
4.72143
 20
14.88759
 30
 0
 11
4.62052
 21
15.08940
  0
LINE
  8
Engraving
 62
   7
 39
0.400
  6
CONTINUOUS
 10
4.62052
 20
15.08940
 30
 0
 11
4.62052
 21
15.27103
  0
LINE
  8
Engraving
 62
   7
 39
0.400
  6
CONTINUOUS
 10
4.62052
 20
15.27103
 30
 0
 11
4.64070
 21
15.47284
  0
LINE
  8
Engraving
 62
   7
 39
0.400
  6
CONTINUOUS
 10
4.64070
 20
15.47284
 30
 0
 11
4.72143
 21
15.61411
  0
LINE
  8
Engraving
 62
   7
 39
0.400
  6
CONTINUOUS
 10
4.72143
 20
15.61411
 30
 0
 11
4.88287
 21
15.67465
  0
LINE
  8
Engraving
 62
   7
 39
0.400
  6
CONTINUOUS
 10
4.88287
 20
15.67465
 30
 0
 11
6.45700
 21
15.67465
  0
LINE
  8
Engraving
 62
   7
 39
0.400
  6
CONTINUOUS
 10
13.25000
 20
10.54977
 30
 0
 11
13.25000
 21
9.50035
  0
LINE
  8
Engraving
 62
   7
 39
0.400
  6
CONTINUOUS
 10
13.25000
 20
9.50035
 30
 0
 11
15.81300
 21
9.50035
  0
LINE
  8
Engraving
 62
   7
 39
0.400
  6
CONTINUOUS
 10
14.50123
 20
10.50941
 30
 0
 11
14.50123
 21
9.50035
  0
LINE
  8
Engraving
 62
   7
 39
0.400
  6
CONTINUOUS
 10
13.47199
 20
11.05417
 30
 0
 11
13.25000
 21
11.05417
  0
LINE
  8
Engraving
 62
   7
 39
0.400
  6
CONTINUOUS
 10
13.25000
 20
11.05417
 30
 0
 11
13.25000
 21
11.27617
  0
LINE
  8
Engraving
 62
   7
 39
0.400
  6
CONTINUOUS
 10
13.25000
 20
11.27617
 30
 0
 11
13.47199
 21
11.27617
  0
LINE
  8
Engraving
 62
   7
 39
0.400
  6
CONTINUOUS
 10
13.47199
 20
11.27617
 30
 0
 11
13.47199
 21
11.05417
  0
LINE
  8
Engraving
 62
   7
 39
0.400
  6
CONTINUOUS
 10
14.01688
 20
11.17526
 30
 0
 11
15.81300
 21
11.17526
  0
LINE
  8
Engraving
 62
   7
 39
0.400
  6
CONTINUOUS
 10
15.81300
 20
11.80035
 30
 0
 11
13.25000
 21
11.80035
  0
LINE
  8
Engraving
 62
   7
 39
0.400
  6
CONTINUOUS
 10
13.71417
 20
12.72798
 30
 0
 11
15.55065
 21
12.72798
  0
LINE
  8
Engraving
 62
   7
 39
0.400
  6
CONTINUOUS
 10
15.55065
 20
12.72798
 30
 0
 11
15.67173
 21
12.74816
  0
LINE
  8
Engraving
 62
   7
 39
0.400
  6
CONTINUOUS
 10
15.67173
 20
12.74816
 30
 0
 11
15.77264
 21
12.78852
  0
LINE
  8
Engraving
 62
   7
 39
0.400
  6
CONTINUOUS
 10
15.77264
 20
12.78852
 30
 0
 11
15.81300
 21
12.86924
  0
LINE
  8
Engraving
 62
   7
 39
0.400
  6
CONTINUOUS
 10
15.81300
 20
12.86924
 30
 0
 11
15.79282
 21
13.13160
  0
LINE
  8
Engraving
 62
   7
 39
0.400
  6
CONTINUOUS
 10
13.99670
 20
12.32435
 30
 0
 11
13.99670
 21
13.11142
  0
LINE
  8
Engraving
 62
   7
 39
0.400
  6
CONTINUOUS
 10
15.20657
 20
14.70477
 30
 0
 11
15.36802
 21
14.70477
  0
LINE
  8
Engraving
 62
   7
 39
0.400
  6
CONTINUOUS
 10
15.36802
 20
14.70477
 30
 0
 11
15.52946
 21
14.68459
  0
LINE
  8
Engraving
 62
   7
 39
0.400
  6
CONTINUOUS
 10
15.52946
 20
14.68459
 30
 0
 11
15.69091
 21
14.58369
  0
LINE
  8
Engraving
 62
   7
 39
0.400
  6
CONTINUOUS
 10
15.69091
 20
14.58369
 30
 0
 11
15.77164
 21
14.48278
  0
LINE
  8
Engraving
 62
   7
 39
0.400
  6
CONTINUOUS
 10
15.77164
 20
14.48278
 30
 0
 11
15.83218
 21
14.28097
  0
LINE
  8
Engraving
 62
   7
 39
0.400
  6
CONTINUOUS
 10
15.83218
 20
14.28097
 30
 0
 11
15.83218
 21
14.09934
  0
LINE
  8
Engraving
 62
   7
 39
0.400
  6
CONTINUOUS
 10
15.83218
 20
14.09934
 30
 0
 11
15.79182
 21
13.91771
  0
LINE
  8
Engraving
 62
   7
 39
0.400
  6
CONTINUOUS
 10
15.79182
 20
13.91771
 30
 0
 11
15.71109
 21
13.79662
  0
LINE
  8
Engraving
 62
   7
 39
0.400
  6
CONTINUOUS
 10
15.71109
 20
13.79662
 30
 0
 11
15.56983
 21
13.67554
  0
LINE
  8
Engraving
 62
   7
 39
0.400
  6
CONTINUOUS
 10
15.56983
 20
13.67554
 30
 0
 11
15.36802
 21
13.63517
  0
LINE
  8
Engraving
 62
   7
 39
0.400
  6
CONTINUOUS
 10
15.36802
 20
13.63517
 30
 0
 11
14.45987
 21
13.63517
  0
LINE
  8
Engraving
 62
   7
 39
0.400
  6
CONTINUOUS
 10
14.45987
 20
13.63517
 30
 0
 11
14.25806
 21
13.67554
  0
LINE
  8
Engraving
 62
   7
 39
0.400
  6
CONTINUOUS
 10
14.25806
 20
13.67554
 30
 0
 11
14.11679
 21
13.77644
  0
LINE
  8
Engraving
 62
   7
 39
0.400
  6
CONTINUOUS
 10
14.11679
 20
13.77644
 30
 0
 11
14.03606
 21
13.87735
  0
LINE
  8
Engraving
 62
   7
 39
0.400
  6
CONTINUOUS
 10
14.03606
 20
13.87735
 30
 0
 11
13.99570
 21
14.09934
  0
LINE
  8
Engraving
 62
   7
 39
0.400
  6
CONTINUOUS
 10
13.99570
 20
14.09934
 30
 0
 11
13.99570
 21
14.22043
  0
LINE
  8
Engraving
 62
   7
 39
0.400
  6
CONTINUOUS
 10
13.99570
 20
14.22043
 30
 0
 11
14.01588
 21
14.38187
  0
LINE
  8
Engraving
 62
   7
 39
0.400
  6
CONTINUOUS
 10
14.01588
 20
14.38187
 30
 0
 11
14.09661
 21
14.52314
  0
LINE
  8
Engraving
 62
   7
 39
0.400
  6
CONTINUOUS
 10
14.09661
 20
14.52314
 30
 0
 11
14.25806
 21
14.64423
  0
LINE
  8
Engraving
 62
   7
 39
0.400
  6
CONTINUOUS
 10
14.25806
 20
14.64423
 30
 0
 11
14.48005
 21
14.68459
  0
LINE
  8
Engraving
 62
   7
 39
0.400
  6
CONTINUOUS
 10
14.48005
 20
14.68459
 30
 0
 11
14.98457
 21
14.68459
  0
LINE
  8
Engraving
 62
   7
 39
0.400
  6
CONTINUOUS
 10
14.98457
 20
14.68459
 30
 0
 11
14.98457
 21
13.63517
  0
LINE
  8
Engraving
 62
   7
 39
0.400
  6
CONTINUOUS
 10
15.81200
 20
15.22935
 30
 0
 11
14.01588
 21
15.22935
  0
LINE
  8
Engraving
 62
   7
 39
0.400
  6
CONTINUOUS
 10
14.01588
 20
15.22935
 30
 0
 11
14.17733
 21
15.22935
  0
LINE
  8
Engraving
 62
   7
 39
0.400
  6
CONTINUOUS
 10
14.17733
 20
15.22935
 30
 0
 11
14.07643
 21
15.45135
  0
LINE
  8
Engraving
 62
   7
 39
0.400
  6
CONTINUOUS
 10
14.07643
 20
15.45135
 30
 0
 11
14.01588
 21
15.59261
  0
LINE
  8
Engraving
 62
   7
 39
0.400
  6
CONTINUOUS
 10
14.01588
 20
15.59261
 30
 0
 11
13.99570
 21
15.77424
  0
LINE
  8
Engraving
 62
   7
 39
0.400
  6
CONTINUOUS
 10
13.99570
 20
15.77424
 30
 0
 11
13.99570
 21
15.93569
  0
LINE
  8
Engraving
 62
   7
 39
0.200
  6
CONTINUOUS
 10
3.68780
 20
42.71780
 30
 0
 11
4.49435
 21
42.71780
  0
ARC
  8
Engraving
 62
   7
 39
0.200
  6
CONTINUOUS
 10
4.49435
 20
42.10228
 30
 0
 40
0.61553
 50
-90.00000
 51
90.00000
  0
LINE
  8
Engraving
 62
   7
 39
0.200
  6
CONTINUOUS
 10
4.49435
 20
41.48675
 30
 0
 11
3.68780
 21
41.48675
  0
LINE
  8
Engraving
 62
   7
 39
0.200
  6
CONTINUOUS
 10
3.68780
 20
41.48675
 30
 0
 11
3.68780
 21
42.71780
  0
LINE
  8
Engraving
 62
   7
 39
0.200
  6
CONTINUOUS
 10
3.68780
 20
43.39700
 30
 0
 11
4.32455
 21
43.39700
  0
ARC
  8
Engraving
 62
   7
 39
0.200
  6
CONTINUOUS
 10
4.32455
 20
43.92762
 30
 0
 40
0.53063
 50
270.00000
 51
450.00000
  0
LINE
  8
Engraving
 62
   7
 39
0.200
  6
CONTINUOUS
 10
4.32455
 20
44.45825
 30
 0
 11
3.68780
 21
44.45825
  0
LINE
  8
Engraving
 62
   7
 39
0.200
  6
CONTINUOUS
 10
3.68780
 20
44.45825
 30
 0
 11
3.68780
 21
43.39700
  0
LINE
  8
Engraving
 62
   7
 39
0.200
  6
CONTINUOUS
 10
3.00860
 20
45.09500
 30
 0
 11
3.00860
 21
40.85000
  0
LINE
  8
Engraving
 62
   7
 39
0.200
  6
CONTINUOUS
 10
3.00860
 20
40.85000
 30
 0
 11
4.53680
 21
40.85000
  0
ARC
  8
Engraving
 62
   7
 39
0.200
  6
CONTINUOUS
 10
4.53677
 20
42.10421
 30
 0
 40
1.25421
 50
270.00118
 51
419.48858
  0
ARC
  8
Engraving
 62
   7
 39
0.200
  6
CONTINUOUS
 10
4.33392
 20
43.95605
 30
 0
 40
1.14013
 50
317.42879
 51
452.60500
  0
LINE
  8
Engraving
 62
   7
 39
0.200
  6
CONTINUOUS
 10
4.28210
 20
45.09500
 30
 0
 11
3.00860
 21
45.09500
  0
ARC
  8
Engraving
 62
   7
 39
0.200
  6
CONTINUOUS
 10
7.89045
 20
42.33575
 30
 0
 40
0.84900
 50
90.00000
 51
270.00000
  0
ARC
  8
Engraving
 62
   7
 39
0.200
  6
CONTINUOUS
 10
7.89045
 20
42.33575
 30
 0
 40
0.84900
 50
270.00000
 51
450.00000
  0
ARC
  8
Engraving
 62
   7
 39
0.200
  6
CONTINUOUS
 10
7.76310
 20
42.57266
 30
 0
 40
1.25084
 50
38.68866
 51
141.31134
  0
ARC
  8
Engraving
 62
   7
 39
0.200
  6
CONTINUOUS
 10
8.08058
 20
42.33575
 30
 0
 40
1.64680
 50
141.78203
 51
218.21797
  0
ARC
  8
Engraving
 62
   7
 39
0.200
  6
CONTINUOUS
 10
7.76310
 20
42.09884
 30
 0
 40
1.25084
 50
218.68866
 51
321.31134
  0
LINE
  8
Engraving
 62
   7
 39
0.200
  6
CONTINUOUS
 10
8.73945
 20
41.31695
 30
 0
 11
8.73945
 21
40.85000
  0
LINE
  8
Engraving
 62
   7
 39
0.200
  6
CONTINUOUS
 10
8.73945
 20
40.85000
 30
 0
 11
9.37620
 21
40.85000
  0
LINE
  8
Engraving
 62
   7
 39
0.200
  6
CONTINUOUS
 10
9.37620
 20
40.85000
 30
 0
 11
9.37620
 21
43.73660
  0
LINE
  8
Engraving
 62
   7
 39
0.200
  6
CONTINUOUS
 10
9.37620
 20
43.73660
 30
 0
 11
8.73945
 21
43.73660
  0
LINE
  8
Engraving
 62
   7
 39
0.200
  6
CONTINUOUS
 10
8.73945
 20
43.73660
 30
 0
 11
8.73945
 21
43.35455
  0
ARC
  8
Engraving
 62
   7
 39
0.200
  6
CONTINUOUS
 10
11.49890
 20
42.33575
 30
 0
 40
0.84900
 50
90.00000
 51
270.00000
  0
ARC
  8
Engraving
 62
   7
 39
0.200
  6
CONTINUOUS
 10
11.49890
 20
42.33575
 30
 0
 40
0.84900
 50
270.00000
 51
450.00000
  0
ARC
  8
Engraving
 62
   7
 39
0.200
  6
CONTINUOUS
 10
11.37155
 20
42.57266
 30
 0
 40
1.25084
 50
38.68866
 51
141.31134
  0
ARC
  8
Engraving
 62
   7
 39
0.200
  6
CONTINUOUS
 10
11.68903
 20
42.33575
 30
 0
 40
1.64680
 50
141.78203
 51
218.21797
  0
ARC
  8
Engraving
 62
   7
 39
0.200
  6
CONTINUOUS
 10
11.37155
 20
42.09884
 30
 0
 40
1.25084
 50
218.68866
 51
321.31134
  0
LINE
  8
Engraving
 62
   7
 39
0.200
  6
CONTINUOUS
 10
12.34790
 20
41.31695
 30
 0
 11
12.34790
 21
40.85000
  0
LINE
  8
Engraving
 62
   7
 39
0.200
  6
CONTINUOUS
 10
12.34790
 20
40.85000
 30
 0
 11
13.02710
 21
40.85000
  0
LINE
  8
Engraving
 62
   7
 39
0.200
  6
CONTINUOUS
 10
13.02710
 20
40.85000
 30
 0
 11
13.02710
 21
45.56195
  0
LINE
  8
Engraving
 62
   7
 39
0.200
  6
CONTINUOUS
 10
13.02710
 20
45.56195
 30
 0
 11
12.34790
 21
45.56195
  0
LINE
  8
Engraving
 62
   7
 39
0.200
  6
CONTINUOUS
 10
12.34790
 20
45.56195
 30
 0
 11
12.34790
 21
43.35455
  0
LINE
  8
Engraving
 62
   7
 39
0.200
  6
CONTINUOUS
 10
17.10260
 20
45.09600
 30
 0
 11
17.10260
 21
44.45925
  0
LINE
  8
Engraving
 62
   7
 39
0.200
  6
CONTINUOUS
 10
17.10260
 20
44.45925
 30
 0
 11
18.16385
 21
44.45925
  0
LINE
  8
Engraving
 62
   7
 39
0.200
  6
CONTINUOUS
 10
18.16385
 20
44.45925
 30
 0
 11
18.16385
 21
40.85100
  0
LINE
  8
Engraving
 62
   7
 39
0.200
  6
CONTINUOUS
 10
18.16385
 20
40.85100
 30
 0
 11
18.84305
 21
40.85100
  0
LINE
  8
Engraving
 62
   7
 39
0.200
  6
CONTINUOUS
 10
18.84305
 20
40.85100
 30
 0
 11
18.84305
 21
44.45925
  0
LINE
  8
Engraving
 62
   7
 39
0.200
  6
CONTINUOUS
 10
18.84305
 20
44.45925
 30
 0
 11
19.90430
 21
44.45925
  0
LINE
  8
Engraving
 62
   7
 39
0.200
  6
CONTINUOUS
 10
19.90430
 20
44.45925
 30
 0
 11
19.90430
 21
45.09600
  0
LINE
  8
Engraving
 62
   7
 39
0.200
  6
CONTINUOUS
 10
19.90430
 20
45.09600
 30
 0
 11
17.10260
 21
45.09600
  0
LINE
  8
Engraving
 62
   7
 39
0.200
  6
CONTINUOUS
 10
20.58260
 20
43.82250
 30
 0
 11
20.58260
 21
40.85100
  0
LINE
  8
Engraving
 62
   7
 39
0.200
  6
CONTINUOUS
 10
20.58260
 20
40.85100
 30
 0
 11
21.17690
 21
40.85100
  0
LINE
  8
Engraving
 62
   7
 39
0.200
  6
CONTINUOUS
 10
21.17690
 20
40.85100
 30
 0
 11
21.17690
 21
42.46410
  0
ARC
  8
Engraving
 62
   7
 39
0.200
  6
CONTINUOUS
 10
21.81266
 20
42.54463
 30
 0
 40
0.64084
 50
53.29376
 51
187.21912
  0
LINE
  8
Engraving
 62
   7
 39
0.200
  6
CONTINUOUS
 10
22.19570
 20
43.05840
 30
 0
 11
22.19570
 21
43.78005
  0
ARC
  8
Engraving
 62
   7
 39
0.200
  6
CONTINUOUS
 10
22.12790
 20
42.64216
 30
 0
 40
1.13991
 50
86.58993
 51
146.54018
  0
LINE
  8
Engraving
 62
   7
 39
0.200
  6
CONTINUOUS
 10
21.17690
 20
43.27065
 30
 0
 11
21.17690
 21
43.82250
  0
LINE
  8
Engraving
 62
   7
 39
0.200
  6
CONTINUOUS
 10
21.17690
 20
43.82250
 30
 0
 11
20.58260
 21
43.82250
  0
ARC
  8
Engraving
 62
   7
 39
0.200
  6
CONTINUOUS
 10
23.21420
 20
45.05355
 30
 0
 40
0.33960
 50
180.00000
 51
360.00000
  0
ARC
  8
Engraving
 62
   7
 39
0.200
  6
CONTINUOUS
 10
23.21420
 20
45.05355
 30
 0
 40
0.33960
 50
0.00000
 51
180.00000
  0
LINE
  8
Engraving
 62
   7
 39
0.200
  6
CONTINUOUS
 10
22.87460
 20
43.82250
 30
 0
 11
22.87460
 21
40.85100
  0
LINE
  8
Engraving
 62
   7
 39
0.200
  6
CONTINUOUS
 10
22.87460
 20
40.85100
 30
 0
 11
23.51135
 21
40.85100
  0
LINE
  8
Engraving
 62
   7
 39
0.200
  6
CONTINUOUS
 10
23.51135
 20
40.85100
 30
 0
 11
23.51135
 21
43.82250
  0
LINE
  8
Engraving
 62
   7
 39
0.200
  6
CONTINUOUS
 10
23.51135
 20
43.82250
 30
 0
 11
22.87460
 21
43.82250
  0
ARC
  8
Engraving
 62
   7
 39
0.200
  6
CONTINUOUS
 10
25.67590
 20
42.33675
 30
 0
 40
0.84900
 50
-90.00000
 51
90.00000
  0
ARC
  8
Engraving
 62
   7
 39
0.200
  6
CONTINUOUS
 10
25.67590
 20
42.33675
 30
 0
 40
0.84900
 50
90.00000
 51
270.00000
  0
LINE
  8
Engraving
 62
   7
 39
0.200
  6
CONTINUOUS
 10
24.82690
 20
43.35555
 30
 0
 11
24.82690
 21
43.82250
  0
LINE
  8
Engraving
 62
   7
 39
0.200
  6
CONTINUOUS
 10
24.82690
 20
43.82250
 30
 0
 11
24.19015
 21
43.82250
  0
LINE
  8
Engraving
 62
   7
 39
0.200
  6
CONTINUOUS
 10
24.19015
 20
43.82250
 30
 0
 11
24.19015
 21
39.15300
  0
LINE
  8
Engraving
 62
   7
 39
0.200
  6
CONTINUOUS
 10
24.19015
 20
39.15300
 30
 0
 11
24.82690
 21
39.15300
  0
LINE
  8
Engraving
 62
   7
 39
0.200
  6
CONTINUOUS
 10
24.82690
 20
39.15300
 30
 0
 11
24.82690
 21
41.31795
  0
ARC
  8
Engraving
 62
   7
 39
0.200
  6
CONTINUOUS
 10
25.80325
 20
42.09984
 30
 0
 40
1.25084
 50
218.68866
 51
321.31134
  0
ARC
  8
Engraving
 62
   7
 39
0.200
  6
CONTINUOUS
 10
25.48577
 20
42.33675
 30
 0
 40
1.64680
 50
321.78203
 51
398.21797
  0
ARC
  8
Engraving
 62
   7
 39
0.200
  6
CONTINUOUS
 10
25.80325
 20
42.57366
 30
 0
 40
1.25084
 50
38.68866
 51
141.31134
  0
LINE
  8
Engraving
 62
   7
 39
0.400
  6
CONTINUOUS
 10
4.45965
 20
50.74800
 30
 0
 11
3.45307
 21
48.87464
  0
LINE
  8
Engraving
 62
   7
 39
0.400
  6
CONTINUOUS
 10
3.45307
 20
48.87464
 30
 0
 11
2.44649
 21
50.74800
  0
LINE
  8
Engraving
 62
   7
 39
0.400
  6
CONTINUOUS
 10
3.45307
 20
48.87464
 30
 0
 11
3.45307
 21
47.19700
  0
LINE
  8
Engraving
 62
   7
 39
0.400
  6
CONTINUOUS
 10
5.15953
 20
48.45623
 30
 0
 11
5.15953
 21
47.78517
  0
LINE
  8
Engraving
 62
   7
 39
0.400
  6
CONTINUOUS
 10
5.15953
 20
47.78517
 30
 0
 11
5.21545
 21
47.53353
  0
LINE
  8
Engraving
 62
   7
 39
0.400
  6
CONTINUOUS
 10
5.21545
 20
47.53353
 30
 0
 11
5.35525
 21
47.33780
  0
LINE
  8
Engraving
 62
   7
 39
0.400
  6
CONTINUOUS
 10
5.35525
 20
47.33780
 30
 0
 11
5.60690
 21
47.19800
  0
LINE
  8
Engraving
 62
   7
 39
0.400
  6
CONTINUOUS
 10
5.60690
 20
47.19800
 30
 0
 11
5.80262
 21
47.17004
  0
LINE
  8
Engraving
 62
   7
 39
0.400
  6
CONTINUOUS
 10
5.80262
 20
47.17004
 30
 0
 11
6.05427
 21
47.17004
  0
LINE
  8
Engraving
 62
   7
 39
0.400
  6
CONTINUOUS
 10
6.05427
 20
47.17004
 30
 0
 11
6.27795
 21
47.22596
  0
LINE
  8
Engraving
 62
   7
 39
0.400
  6
CONTINUOUS
 10
6.27795
 20
47.22596
 30
 0
 11
6.44572
 21
47.36576
  0
LINE
  8
Engraving
 62
   7
 39
0.400
  6
CONTINUOUS
 10
6.44572
 20
47.36576
 30
 0
 11
6.58552
 21
47.58945
  0
LINE
  8
Engraving
 62
   7
 39
0.400
  6
CONTINUOUS
 10
6.58552
 20
47.58945
 30
 0
 11
6.64144
 21
47.78517
  0
LINE
  8
Engraving
 62
   7
 39
0.400
  6
CONTINUOUS
 10
6.64144
 20
47.78517
 30
 0
 11
6.64144
 21
49.07136
  0
LINE
  8
Engraving
 62
   7
 39
0.400
  6
CONTINUOUS
 10
6.64144
 20
49.07136
 30
 0
 11
6.55756
 21
49.37893
  0
LINE
  8
Engraving
 62
   7
 39
0.400
  6
CONTINUOUS
 10
6.55756
 20
49.37893
 30
 0
 11
6.41776
 21
49.54669
  0
LINE
  8
Engraving
 62
   7
 39
0.400
  6
CONTINUOUS
 10
6.41776
 20
49.54669
 30
 0
 11
6.22203
 21
49.68650
  0
LINE
  8
Engraving
 62
   7
 39
0.400
  6
CONTINUOUS
 10
6.22203
 20
49.68650
 30
 0
 11
5.99835
 21
49.71446
  0
LINE
  8
Engraving
 62
   7
 39
0.400
  6
CONTINUOUS
 10
5.99835
 20
49.71446
 30
 0
 11
5.80262
 21
49.71446
  0
LINE
  8
Engraving
 62
   7
 39
0.400
  6
CONTINUOUS
 10
5.80262
 20
49.71446
 30
 0
 11
5.52302
 21
49.65854
  0
LINE
  8
Engraving
 62
   7
 39
0.400
  6
CONTINUOUS
 10
5.52302
 20
49.65854
 30
 0
 11
5.32729
 21
49.51873
  0
LINE
  8
Engraving
 62
   7
 39
0.400
  6
CONTINUOUS
 10
5.32729
 20
49.51873
 30
 0
 11
5.21545
 21
49.35097
  0
LINE
  8
Engraving
 62
   7
 39
0.400
  6
CONTINUOUS
 10
5.21545
 20
49.35097
 30
 0
 11
5.15953
 21
49.07136
  0
LINE
  8
Engraving
 62
   7
 39
0.400
  6
CONTINUOUS
 10
5.15953
 20
49.07136
 30
 0
 11
5.15953
 21
48.45623
  0
LINE
  8
Engraving
 62
   7
 39
0.400
  6
CONTINUOUS
 10
7.36849
 20
47.19800
 30
 0
 11
7.36849
 21
49.68650
  0
LINE
  8
Engraving
 62
   7
 39
0.400
  6
CONTINUOUS
 10
7.36849
 20
49.68650
 30
 0
 11
7.36849
 21
49.46281
  0
LINE
  8
Engraving
 62
   7
 39
0.400
  6
CONTINUOUS
 10
7.36849
 20
49.46281
 30
 0
 11
7.67606
 21
49.60261
  0
LINE
  8
Engraving
 62
   7
 39
0.400
  6
CONTINUOUS
 10
7.67606
 20
49.60261
 30
 0
 11
7.87178
 21
49.68650
  0
LINE
  8
Engraving
 62
   7
 39
0.400
  6
CONTINUOUS
 10
7.87178
 20
49.68650
 30
 0
 11
8.12343
 21
49.71446
  0
LINE
  8
Engraving
 62
   7
 39
0.400
  6
CONTINUOUS
 10
8.12343
 20
49.71446
 30
 0
 11
8.34711
 21
49.71446
  0
LINE
  8
Engraving
 62
   7
 39
0.400
  6
CONTINUOUS
 10
9.01853
 20
50.74900
 30
 0
 11
9.01853
 21
47.19800
  0
LINE
  8
Engraving
 62
   7
 39
0.400
  6
CONTINUOUS
 10
10.58432
 20
49.68650
 30
 0
 11
9.01853
 21
48.59603
  0
LINE
  8
Engraving
 62
   7
 39
0.400
  6
CONTINUOUS
 10
9.01853
 20
48.59603
 30
 0
 11
9.38202
 21
48.84768
  0
LINE
  8
Engraving
 62
   7
 39
0.400
  6
CONTINUOUS
 10
9.38202
 20
48.84768
 30
 0
 11
10.61228
 21
47.19800
  0
LINE
  8
Engraving
 62
   7
 39
0.400
  6
CONTINUOUS
 10
14.10853
 20
47.19800
 30
 0
 11
14.10853
 21
50.74900
  0
LINE
  8
Engraving
 62
   7
 39
0.400
  6
CONTINUOUS
 10
14.10853
 20
50.74900
 30
 0
 11
14.36017
 21
50.74900
  0
LINE
  8
Engraving
 62
   7
 39
0.400
  6
CONTINUOUS
 10
14.36017
 20
50.74900
 30
 0
 11
15.39472
 21
47.19800
  0
LINE
  8
Engraving
 62
   7
 39
0.400
  6
CONTINUOUS
 10
15.39472
 20
47.19800
 30
 0
 11
16.40130
 21
50.74900
  0
LINE
  8
Engraving
 62
   7
 39
0.400
  6
CONTINUOUS
 10
16.40130
 20
50.74900
 30
 0
 11
16.65294
 21
50.74900
  0
LINE
  8
Engraving
 62
   7
 39
0.400
  6
CONTINUOUS
 10
16.65294
 20
50.74900
 30
 0
 11
16.65294
 21
47.19800
  0
LINE
  8
Engraving
 62
   7
 39
0.400
  6
CONTINUOUS
 10
17.35153
 20
48.45623
 30
 0
 11
17.35153
 21
47.78517
  0
LINE
  8
Engraving
 62
   7
 39
0.400
  6
CONTINUOUS
 10
17.35153
 20
47.78517
 30
 0
 11
17.40745
 21
47.53353
  0
LINE
  8
Engraving
 62
   7
 39
0.400
  6
CONTINUOUS
 10
17.40745
 20
47.53353
 30
 0
 11
17.54725
 21
47.33780
  0
LINE
  8
Engraving
 62
   7
 39
0.400
  6
CONTINUOUS
 10
17.54725
 20
47.33780
 30
 0
 11
17.79890
 21
47.19800
  0
LINE
  8
Engraving
 62
   7
 39
0.400
  6
CONTINUOUS
 10
17.79890
 20
47.19800
 30
 0
 11
17.99462
 21
47.17004
  0
LINE
  8
Engraving
 62
   7
 39
0.400
  6
CONTINUOUS
 10
17.99462
 20
47.17004
 30
 0
 11
18.24627
 21
47.17004
  0
LINE
  8
Engraving
 62
   7
 39
0.400
  6
CONTINUOUS
 10
18.24627
 20
47.17004
 30
 0
 11
18.46995
 21
47.22596
  0
LINE
  8
Engraving
 62
   7
 39
0.400
  6
CONTINUOUS
 10
18.46995
 20
47.22596
 30
 0
 11
18.63772
 21
47.36576
  0
LINE
  8
Engraving
 62
   7
 39
0.400
  6
CONTINUOUS
 10
18.63772
 20
47.36576
 30
 0
 11
18.77752
 21
47.58945
  0
LINE
  8
Engraving
 62
   7
 39
0.400
  6
CONTINUOUS
 10
18.77752
 20
47.58945
 30
 0
 11
18.83344
 21
47.78517
  0
LINE
  8
Engraving
 62
   7
 39
0.400
  6
CONTINUOUS
 10
18.83344
 20
47.78517
 30
 0
 11
18.83344
 21
49.07136
  0
LINE
  8
Engraving
 62
   7
 39
0.400
  6
CONTINUOUS
 10
18.83344
 20
49.07136
 30
 0
 11
18.74956
 21
49.37893
  0
LINE
  8
Engraving
 62
   7
 39
0.400
  6
CONTINUOUS
 10
18.74956
 20
49.37893
 30
 0
 11
18.60976
 21
49.54669
  0
LINE
  8
Engraving
 62
   7
 39
0.400
  6
CONTINUOUS
 10
18.60976
 20
49.54669
 30
 0
 11
18.41403
 21
49.68650
  0
LINE
  8
Engraving
 62
   7
 39
0.400
  6
CONTINUOUS
 10
18.41403
 20
49.68650
 30
 0
 11
18.19035
 21
49.71446
  0
LINE
  8
Engraving
 62
   7
 39
0.400
  6
CONTINUOUS
 10
18.19035
 20
49.71446
 30
 0
 11
17.99462
 21
49.71446
  0
LINE
  8
Engraving
 62
   7
 39
0.400
  6
CONTINUOUS
 10
17.99462
 20
49.71446
 30
 0
 11
17.71502
 21
49.65854
  0
LINE
  8
Engraving
 62
   7
 39
0.400
  6
CONTINUOUS
 10
17.71502
 20
49.65854
 30
 0
 11
17.51929
 21
49.51873
  0
LINE
  8
Engraving
 62
   7
 39
0.400
  6
CONTINUOUS
 10
17.51929
 20
49.51873
 30
 0
 11
17.40745
 21
49.35097
  0
LINE
  8
Engraving
 62
   7
 39
0.400
  6
CONTINUOUS
 10
17.40745
 20
49.35097
 30
 0
 11
17.35153
 21
49.07136
  0
LINE
  8
Engraving
 62
   7
 39
0.400
  6
CONTINUOUS
 10
17.35153
 20
49.07136
 30
 0
 11
17.35153
 21
48.45623
  0
LINE
  8
Engraving
 62
   7
 39
0.400
  6
CONTINUOUS
 10
21.01344
 20
50.74900
 30
 0
 11
21.01344
 21
47.19800
  0
LINE
  8
Engraving
 62
   7
 39
0.400
  6
CONTINUOUS
 10
21.01344
 20
47.19800
 30
 0
 11
21.01344
 21
47.33780
  0
LINE
  8
Engraving
 62
   7
 39
0.400
  6
CONTINUOUS
 10
21.01344
 20
47.33780
 30
 0
 11
20.81772
 21
47.25392
  0
LINE
  8
Engraving
 62
   7
 39
0.400
  6
CONTINUOUS
 10
20.81772
 20
47.25392
 30
 0
 11
20.62199
 21
47.19800
  0
LINE
  8
Engraving
 62
   7
 39
0.400
  6
CONTINUOUS
 10
20.62199
 20
47.19800
 30
 0
 11
20.39831
 21
47.17004
  0
LINE
  8
Engraving
 62
   7
 39
0.400
  6
CONTINUOUS
 10
20.39831
 20
47.17004
 30
 0
 11
20.23054
 21
47.17004
  0
LINE
  8
Engraving
 62
   7
 39
0.400
  6
CONTINUOUS
 10
20.23054
 20
47.17004
 30
 0
 11
20.00686
 21
47.19800
  0
LINE
  8
Engraving
 62
   7
 39
0.400
  6
CONTINUOUS
 10
20.00686
 20
47.19800
 30
 0
 11
19.81113
 21
47.30984
  0
LINE
  8
Engraving
 62
   7
 39
0.400
  6
CONTINUOUS
 10
19.81113
 20
47.30984
 30
 0
 11
19.64337
 21
47.44965
  0
LINE
  8
Engraving
 62
   7
 39
0.400
  6
CONTINUOUS
 10
19.64337
 20
47.44965
 30
 0
 11
19.55949
 21
47.64537
  0
LINE
  8
Engraving
 62
   7
 39
0.400
  6
CONTINUOUS
 10
19.55949
 20
47.64537
 30
 0
 11
19.53153
 21
47.81313
  0
LINE
  8
Engraving
 62
   7
 39
0.400
  6
CONTINUOUS
 10
19.53153
 20
47.81313
 30
 0
 11
19.53153
 21
49.07136
  0
LINE
  8
Engraving
 62
   7
 39
0.400
  6
CONTINUOUS
 10
19.53153
 20
49.07136
 30
 0
 11
19.58745
 21
49.35097
  0
LINE
  8
Engraving
 62
   7
 39
0.400
  6
CONTINUOUS
 10
19.58745
 20
49.35097
 30
 0
 11
19.72725
 21
49.51873
  0
LINE
  8
Engraving
 62
   7
 39
0.400
  6
CONTINUOUS
 10
19.72725
 20
49.51873
 30
 0
 11
19.92298
 21
49.65854
  0
LINE
  8
Engraving
 62
   7
 39
0.400
  6
CONTINUOUS
 10
19.92298
 20
49.65854
 30
 0
 11
20.20258
 21
49.71446
  0
LINE
  8
Engraving
 62
   7
 39
0.400
  6
CONTINUOUS
 10
20.20258
 20
49.71446
 30
 0
 11
20.39831
 21
49.71446
  0
LINE
  8
Engraving
 62
   7
 39
0.400
  6
CONTINUOUS
 10
20.39831
 20
49.71446
 30
 0
 11
20.67791
 21
49.65854
  0
LINE
  8
Engraving
 62
   7
 39
0.400
  6
CONTINUOUS
 10
20.67791
 20
49.65854
 30
 0
 11
20.87364
 21
49.51873
  0
LINE
  8
Engraving
 62
   7
 39
0.400
  6
CONTINUOUS
 10
20.87364
 20
49.51873
 30
 0
 11
21.01344
 21
49.23913
  0
LINE
  8
Engraving
 62
   7
 39
0.400
  6
CONTINUOUS
 10
23.13752
 20
49.68650
 30
 0
 11
23.13752
 21
47.19800
  0
LINE
  8
Engraving
 62
   7
 39
0.400
  6
CONTINUOUS
 10
23.13752
 20
47.19800
 30
 0
 11
23.13752
 21
47.44965
  0
LINE
  8
Engraving
 62
   7
 39
0.400
  6
CONTINUOUS
 10
23.13752
 20
47.44965
 30
 0
 11
22.94180
 21
47.30984
  0
LINE
  8
Engraving
 62
   7
 39
0.400
  6
CONTINUOUS
 10
22.94180
 20
47.30984
 30
 0
 11
22.77403
 21
47.25392
  0
LINE
  8
Engraving
 62
   7
 39
0.400
  6
CONTINUOUS
 10
22.77403
 20
47.25392
 30
 0
 11
22.63423
 21
47.19800
  0
LINE
  8
Engraving
 62
   7
 39
0.400
  6
CONTINUOUS
 10
22.63423
 20
47.19800
 30
 0
 11
22.41054
 21
47.17004
  0
LINE
  8
Engraving
 62
   7
 39
0.400
  6
CONTINUOUS
 10
22.41054
 20
47.17004
 30
 0
 11
22.15890
 21
47.19800
  0
LINE
  8
Engraving
 62
   7
 39
0.400
  6
CONTINUOUS
 10
22.15890
 20
47.19800
 30
 0
 11
21.93521
 21
47.33780
  0
LINE
  8
Engraving
 62
   7
 39
0.400
  6
CONTINUOUS
 10
21.93521
 20
47.33780
 30
 0
 11
21.79541
 21
47.50557
  0
LINE
  8
Engraving
 62
   7
 39
0.400
  6
CONTINUOUS
 10
21.79541
 20
47.50557
 30
 0
 11
21.71153
 21
47.81313
  0
LINE
  8
Engraving
 62
   7
 39
0.400
  6
CONTINUOUS
 10
21.71153
 20
47.81313
 30
 0
 11
21.71153
 21
49.68650
  0
LINE
  8
Engraving
 62
   7
 39
0.400
  6
CONTINUOUS
 10
23.86449
 20
47.19900
 30
 0
 11
23.86449
 21
50.75000
  0
LINE
  8
Engraving
 62
   7
 39
0.400
  6
CONTINUOUS
 10
24.61845
 20
48.84868
 30
 0
 11
24.61845
 21
49.15624
  0
LINE
  8
Engraving
 62
   7
 39
0.400
  6
CONTINUOUS
 10
24.61845
 20
49.15624
 30
 0
 11
24.67437
 21
49.37993
  0
LINE
  8
Engraving
 62
   7
 39
0.400
  6
CONTINUOUS
 10
24.67437
 20
49.37993
 30
 0
 11
24.78621
 21
49.54769
  0
LINE
  8
Engraving
 62
   7
 39
0.400
  6
CONTINUOUS
 10
24.78621
 20
49.54769
 30
 0
 11
24.95398
 21
49.65954
  0
LINE
  8
Engraving
 62
   7
 39
0.400
  6
CONTINUOUS
 10
24.95398
 20
49.65954
 30
 0
 11
25.20562
 21
49.71546
  0
LINE
  8
Engraving
 62
   7
 39
0.400
  6
CONTINUOUS
 10
25.20562
 20
49.71546
 30
 0
 11
25.42931
 21
49.71546
  0
LINE
  8
Engraving
 62
   7
 39
0.400
  6
CONTINUOUS
 10
25.42931
 20
49.71546
 30
 0
 11
25.68095
 21
49.65954
  0
LINE
  8
Engraving
 62
   7
 39
0.400
  6
CONTINUOUS
 10
25.68095
 20
49.65954
 30
 0
 11
25.82076
 21
49.54769
  0
LINE
  8
Engraving
 62
   7
 39
0.400
  6
CONTINUOUS
 10
25.82076
 20
49.54769
 30
 0
 11
25.93260
 21
49.40789
  0
LINE
  8
Engraving
 62
   7
 39
0.400
  6
CONTINUOUS
 10
25.93260
 20
49.40789
 30
 0
 11
25.98852
 21
49.15624
  0
LINE
  8
Engraving
 62
   7
 39
0.400
  6
CONTINUOUS
 10
25.98852
 20
49.15624
 30
 0
 11
25.98852
 21
47.19900
  0
LINE
  8
Engraving
 62
   7
 39
0.400
  6
CONTINUOUS
 10
25.98852
 20
47.19900
 30
 0
 11
25.98852
 21
47.33880
  0
LINE
  8
Engraving
 62
   7
 39
0.400
  6
CONTINUOUS
 10
25.98852
 20
47.33880
 30
 0
 11
25.82076
 21
47.28288
  0
LINE
  8
Engraving
 62
   7
 39
0.400
  6
CONTINUOUS
 10
25.82076
 20
47.28288
 30
 0
 11
25.56911
 21
47.19900
  0
LINE
  8
Engraving
 62
   7
 39
0.400
  6
CONTINUOUS
 10
25.56911
 20
47.19900
 30
 0
 11
25.34543
 21
47.17104
  0
LINE
  8
Engraving
 62
   7
 39
0.400
  6
CONTINUOUS
 10
25.34543
 20
47.17104
 30
 0
 11
25.14970
 21
47.17104
  0
LINE
  8
Engraving
 62
   7
 39
0.400
  6
CONTINUOUS
 10
25.14970
 20
47.17104
 30
 0
 11
24.98194
 21
47.19900
  0
LINE
  8
Engraving
 62
   7
 39
0.400
  6
CONTINUOUS
 10
24.98194
 20
47.19900
 30
 0
 11
24.81417
 21
47.28288
  0
LINE
  8
Engraving
 62
   7
 39
0.400
  6
CONTINUOUS
 10
24.81417
 20
47.28288
 30
 0
 11
24.64641
 21
47.47861
  0
LINE
  8
Engraving
 62
   7
 39
0.400
  6
CONTINUOUS
 10
24.64641
 20
47.47861
 30
 0
 11
24.59049
 21
47.73025
  0
LINE
  8
Engraving
 62
   7
 39
0.400
  6
CONTINUOUS
 10
24.59049
 20
47.73025
 30
 0
 11
24.59049
 21
48.00986
  0
LINE
  8
Engraving
 62
   7
 39
0.400
  6
CONTINUOUS
 10
24.59049
 20
48.00986
 30
 0
 11
24.64641
 21
48.28946
  0
LINE
  8
Engraving
 62
   7
 39
0.400
  6
CONTINUOUS
 10
24.64641
 20
48.28946
 30
 0
 11
24.75825
 21
48.45723
  0
LINE
  8
Engraving
 62
   7
 39
0.400
  6
CONTINUOUS
 10
24.75825
 20
48.45723
 30
 0
 11
24.92602
 21
48.56907
  0
LINE
  8
Engraving
 62
   7
 39
0.400
  6
CONTINUOUS
 10
24.92602
 20
48.56907
 30
 0
 11
25.14970
 21
48.62499
  0
LINE
  8
Engraving
 62
   7
 39
0.400
  6
CONTINUOUS
 10
25.14970
 20
48.62499
 30
 0
 11
25.98852
 21
48.62499
  0
LINE
  8
Engraving
 62
   7
 39
0.400
  6
CONTINUOUS
 10
26.71549
 20
47.20000
 30
 0
 11
26.71549
 21
49.68850
  0
LINE
  8
Engraving
 62
   7
 39
0.400
  6
CONTINUOUS
 10
26.71549
 20
49.68850
 30
 0
 11
26.71549
 21
49.46481
  0
LINE
  8
Engraving
 62
   7
 39
0.400
  6
CONTINUOUS
 10
26.71549
 20
49.46481
 30
 0
 11
27.02306
 21
49.60461
  0
LINE
  8
Engraving
 62
   7
 39
0.400
  6
CONTINUOUS
 10
27.02306
 20
49.60461
 30
 0
 11
27.21878
 21
49.68850
  0
LINE
  8
Engraving
 62
   7
 39
0.400
  6
CONTINUOUS
 10
27.21878
 20
49.68850
 30
 0
 11
27.47043
 21
49.71646
  0
LINE
  8
Engraving
 62
   7
 39
0.400
  6
CONTINUOUS
 10
27.47043
 20
49.71646
 30
 0
 11
27.69411
 21
49.71646
  0
CIRCLE
  8
Contour
 62
   7
 39
0.100
  6
CONTINUOUS
 10
7.50000
 20
125.50000
 30
 0
 40
1.50000
  0
CIRCLE
  8
Contour
 62
   7
 39
0.100
  6
CONTINUOUS
 10
7.50000
 20
3.00000
 30
 0
 40
1.50000
  0
CIRCLE
  8
Contour
 62
   7
 39
0.100
  6
CONTINUOUS
 10
5.55000
 20
23.09000
 30
 0
 40
2.75000
  0
CIRCLE
  8
Contour
 62
   7
 39
0.100
  6
CONTINUOUS
 10
14.44000
 20
23.09000
 30
 0
 40
2.75000
  0
CIRCLE
  8
Contour
 62
   7
 39
0.100
  6
CONTINUOUS
 10
24.60000
 20
24.36000
 30
 0
 40
3.25000
  0
CIRCLE
  8
Contour
 62
   7
 39
0.100
  6
CONTINUOUS
 10
7.46000
 20
77.70000
 30
 0
 40
3.75000
  0
CIRCLE
  8
Contour
 62
   7
 39
0.100
  6
CONTINUOUS
 10
22.70000
 20
77.70000
 30
 0
 40
3.75000
  0
CIRCLE
  8
Contour
 62
   7
 39
0.100
  6
CONTINUOUS
 10
22.70000
 20
63.73000
 30
 0
 40
3.75000
  0
CIRCLE
  8
Contour
 62
   7
 39
0.100
  6
CONTINUOUS
 10
6.19000
 20
104.37000
 30
 0
 40
3.25000
  0
CIRCLE
  8
Contour
 62
   7
 39
0.100
  6
CONTINUOUS
 10
23.97000
 20
104.37000
 30
 0
 40
3.25000
  0
ENDSEC
  0
EOF
