G04 #@! TF.GenerationSoftware,KiCad,Pcbnew,5.1.6-c6e7f7d~86~ubuntu18.04.1*
G04 #@! TF.CreationDate,2020-07-10T20:36:52+01:00*
G04 #@! TF.ProjectId,acid-casualty-v2,61636964-2d63-4617-9375-616c74792d76,rev?*
G04 #@! TF.SameCoordinates,Original*
G04 #@! TF.FileFunction,Legend,Bot*
G04 #@! TF.FilePolarity,Positive*
%FSLAX46Y46*%
G04 Gerber Fmt 4.6, Leading zero omitted, Abs format (unit mm)*
G04 Created by KiCad (PCBNEW 5.1.6-c6e7f7d~86~ubuntu18.04.1) date 2020-07-10 20:36:52*
%MOMM*%
%LPD*%
G01*
G04 APERTURE LIST*
%ADD10C,0.300000*%
%ADD11C,0.120000*%
%ADD12C,0.152400*%
%ADD13C,0.150000*%
%ADD14C,0.091440*%
%ADD15C,0.228600*%
%ADD16C,0.114300*%
%ADD17C,0.071120*%
G04 APERTURE END LIST*
D10*
X135028000Y-114700857D02*
X134813714Y-114772285D01*
X134742285Y-114843714D01*
X134670857Y-114986571D01*
X134670857Y-115200857D01*
X134742285Y-115343714D01*
X134813714Y-115415142D01*
X134956571Y-115486571D01*
X135528000Y-115486571D01*
X135528000Y-113986571D01*
X135028000Y-113986571D01*
X134885142Y-114058000D01*
X134813714Y-114129428D01*
X134742285Y-114272285D01*
X134742285Y-114415142D01*
X134813714Y-114558000D01*
X134885142Y-114629428D01*
X135028000Y-114700857D01*
X135528000Y-114700857D01*
X133385142Y-115486571D02*
X133385142Y-114700857D01*
X133456571Y-114558000D01*
X133599428Y-114486571D01*
X133885142Y-114486571D01*
X134028000Y-114558000D01*
X133385142Y-115415142D02*
X133528000Y-115486571D01*
X133885142Y-115486571D01*
X134028000Y-115415142D01*
X134099428Y-115272285D01*
X134099428Y-115129428D01*
X134028000Y-114986571D01*
X133885142Y-114915142D01*
X133528000Y-114915142D01*
X133385142Y-114843714D01*
X132028000Y-115486571D02*
X132028000Y-113986571D01*
X132028000Y-115415142D02*
X132170857Y-115486571D01*
X132456571Y-115486571D01*
X132599428Y-115415142D01*
X132670857Y-115343714D01*
X132742285Y-115200857D01*
X132742285Y-114772285D01*
X132670857Y-114629428D01*
X132599428Y-114558000D01*
X132456571Y-114486571D01*
X132170857Y-114486571D01*
X132028000Y-114558000D01*
X130385142Y-113986571D02*
X129528000Y-113986571D01*
X129956571Y-115486571D02*
X129956571Y-113986571D01*
X129028000Y-115486571D02*
X129028000Y-114486571D01*
X129028000Y-114772285D02*
X128956571Y-114629428D01*
X128885142Y-114558000D01*
X128742285Y-114486571D01*
X128599428Y-114486571D01*
X128099428Y-115486571D02*
X128099428Y-114486571D01*
X128099428Y-113986571D02*
X128170857Y-114058000D01*
X128099428Y-114129428D01*
X128028000Y-114058000D01*
X128099428Y-113986571D01*
X128099428Y-114129428D01*
X127385142Y-114486571D02*
X127385142Y-115986571D01*
X127385142Y-114558000D02*
X127242285Y-114486571D01*
X126956571Y-114486571D01*
X126813714Y-114558000D01*
X126742285Y-114629428D01*
X126670857Y-114772285D01*
X126670857Y-115200857D01*
X126742285Y-115343714D01*
X126813714Y-115415142D01*
X126956571Y-115486571D01*
X127242285Y-115486571D01*
X127385142Y-115415142D01*
X124099428Y-115486571D02*
X124956571Y-115486571D01*
X124528000Y-115486571D02*
X124528000Y-113986571D01*
X124670857Y-114200857D01*
X124813714Y-114343714D01*
X124956571Y-114415142D01*
X123456571Y-115343714D02*
X123385142Y-115415142D01*
X123456571Y-115486571D01*
X123528000Y-115415142D01*
X123456571Y-115343714D01*
X123456571Y-115486571D01*
X122028000Y-113986571D02*
X122742285Y-113986571D01*
X122813714Y-114700857D01*
X122742285Y-114629428D01*
X122599428Y-114558000D01*
X122242285Y-114558000D01*
X122099428Y-114629428D01*
X122028000Y-114700857D01*
X121956571Y-114843714D01*
X121956571Y-115200857D01*
X122028000Y-115343714D01*
X122099428Y-115415142D01*
X122242285Y-115486571D01*
X122599428Y-115486571D01*
X122742285Y-115415142D01*
X122813714Y-115343714D01*
D11*
X125646000Y-112022000D02*
X125646000Y-112352000D01*
X125646000Y-107612000D02*
X125646000Y-107943000D01*
X125646000Y-109723000D02*
X125646000Y-110242000D01*
X130386000Y-107612000D02*
X130386000Y-108742000D01*
X130386000Y-111222000D02*
X130386000Y-112352000D01*
X125646000Y-107612000D02*
X130386000Y-107612000D01*
X125646000Y-112352000D02*
X130386000Y-112352000D01*
X166380000Y-108399000D02*
X166380000Y-118169000D01*
X171450000Y-108399000D02*
X171450000Y-118169000D01*
X166380000Y-108399000D02*
X171450000Y-108399000D01*
X166380000Y-118169000D02*
X171450000Y-118169000D01*
X149082000Y-91380000D02*
X150732000Y-91380000D01*
X150732000Y-91380000D02*
X150732000Y-101660000D01*
X150732000Y-101660000D02*
X145432000Y-101660000D01*
X145432000Y-101660000D02*
X145432000Y-91380000D01*
X145432000Y-91380000D02*
X147082000Y-91380000D01*
X153222000Y-91320000D02*
X153222000Y-101720000D01*
X153222000Y-101720000D02*
X142942000Y-101720000D01*
X142942000Y-101720000D02*
X142942000Y-91320000D01*
X142942000Y-91320000D02*
X153222000Y-91320000D01*
X147082000Y-91380000D02*
G75*
G03*
X149082000Y-91380000I1000000J0D01*
G01*
X134604000Y-91126000D02*
X136254000Y-91126000D01*
X136254000Y-91126000D02*
X136254000Y-101406000D01*
X136254000Y-101406000D02*
X130954000Y-101406000D01*
X130954000Y-101406000D02*
X130954000Y-91126000D01*
X130954000Y-91126000D02*
X132604000Y-91126000D01*
X138744000Y-91066000D02*
X138744000Y-101466000D01*
X138744000Y-101466000D02*
X128464000Y-101466000D01*
X128464000Y-101466000D02*
X128464000Y-91066000D01*
X128464000Y-91066000D02*
X138744000Y-91066000D01*
X132604000Y-91126000D02*
G75*
G03*
X134604000Y-91126000I1000000J0D01*
G01*
X160079000Y-103104000D02*
X150309000Y-103104000D01*
X160079000Y-108174000D02*
X150309000Y-108174000D01*
X160079000Y-103104000D02*
X160079000Y-108174000D01*
X150309000Y-103104000D02*
X150309000Y-108174000D01*
X113294000Y-99509000D02*
X113294000Y-109279000D01*
X118364000Y-99509000D02*
X118364000Y-109279000D01*
X113294000Y-99509000D02*
X118364000Y-99509000D01*
X113294000Y-109279000D02*
X118364000Y-109279000D01*
X178622000Y-99822000D02*
G75*
G03*
X178622000Y-99822000I-2620000J0D01*
G01*
X176002000Y-102402000D02*
X176002000Y-97242000D01*
X176042000Y-102402000D02*
X176042000Y-97242000D01*
X176082000Y-102401000D02*
X176082000Y-97243000D01*
X176122000Y-102400000D02*
X176122000Y-97244000D01*
X176162000Y-102398000D02*
X176162000Y-97246000D01*
X176202000Y-102395000D02*
X176202000Y-97249000D01*
X176242000Y-102391000D02*
X176242000Y-100862000D01*
X176242000Y-98782000D02*
X176242000Y-97253000D01*
X176282000Y-102387000D02*
X176282000Y-100862000D01*
X176282000Y-98782000D02*
X176282000Y-97257000D01*
X176322000Y-102383000D02*
X176322000Y-100862000D01*
X176322000Y-98782000D02*
X176322000Y-97261000D01*
X176362000Y-102378000D02*
X176362000Y-100862000D01*
X176362000Y-98782000D02*
X176362000Y-97266000D01*
X176402000Y-102372000D02*
X176402000Y-100862000D01*
X176402000Y-98782000D02*
X176402000Y-97272000D01*
X176442000Y-102365000D02*
X176442000Y-100862000D01*
X176442000Y-98782000D02*
X176442000Y-97279000D01*
X176482000Y-102358000D02*
X176482000Y-100862000D01*
X176482000Y-98782000D02*
X176482000Y-97286000D01*
X176522000Y-102350000D02*
X176522000Y-100862000D01*
X176522000Y-98782000D02*
X176522000Y-97294000D01*
X176562000Y-102342000D02*
X176562000Y-100862000D01*
X176562000Y-98782000D02*
X176562000Y-97302000D01*
X176602000Y-102333000D02*
X176602000Y-100862000D01*
X176602000Y-98782000D02*
X176602000Y-97311000D01*
X176642000Y-102323000D02*
X176642000Y-100862000D01*
X176642000Y-98782000D02*
X176642000Y-97321000D01*
X176682000Y-102313000D02*
X176682000Y-100862000D01*
X176682000Y-98782000D02*
X176682000Y-97331000D01*
X176723000Y-102302000D02*
X176723000Y-100862000D01*
X176723000Y-98782000D02*
X176723000Y-97342000D01*
X176763000Y-102290000D02*
X176763000Y-100862000D01*
X176763000Y-98782000D02*
X176763000Y-97354000D01*
X176803000Y-102277000D02*
X176803000Y-100862000D01*
X176803000Y-98782000D02*
X176803000Y-97367000D01*
X176843000Y-102264000D02*
X176843000Y-100862000D01*
X176843000Y-98782000D02*
X176843000Y-97380000D01*
X176883000Y-102250000D02*
X176883000Y-100862000D01*
X176883000Y-98782000D02*
X176883000Y-97394000D01*
X176923000Y-102236000D02*
X176923000Y-100862000D01*
X176923000Y-98782000D02*
X176923000Y-97408000D01*
X176963000Y-102220000D02*
X176963000Y-100862000D01*
X176963000Y-98782000D02*
X176963000Y-97424000D01*
X177003000Y-102204000D02*
X177003000Y-100862000D01*
X177003000Y-98782000D02*
X177003000Y-97440000D01*
X177043000Y-102187000D02*
X177043000Y-100862000D01*
X177043000Y-98782000D02*
X177043000Y-97457000D01*
X177083000Y-102170000D02*
X177083000Y-100862000D01*
X177083000Y-98782000D02*
X177083000Y-97474000D01*
X177123000Y-102151000D02*
X177123000Y-100862000D01*
X177123000Y-98782000D02*
X177123000Y-97493000D01*
X177163000Y-102132000D02*
X177163000Y-100862000D01*
X177163000Y-98782000D02*
X177163000Y-97512000D01*
X177203000Y-102112000D02*
X177203000Y-100862000D01*
X177203000Y-98782000D02*
X177203000Y-97532000D01*
X177243000Y-102090000D02*
X177243000Y-100862000D01*
X177243000Y-98782000D02*
X177243000Y-97554000D01*
X177283000Y-102069000D02*
X177283000Y-100862000D01*
X177283000Y-98782000D02*
X177283000Y-97575000D01*
X177323000Y-102046000D02*
X177323000Y-100862000D01*
X177323000Y-98782000D02*
X177323000Y-97598000D01*
X177363000Y-102022000D02*
X177363000Y-100862000D01*
X177363000Y-98782000D02*
X177363000Y-97622000D01*
X177403000Y-101997000D02*
X177403000Y-100862000D01*
X177403000Y-98782000D02*
X177403000Y-97647000D01*
X177443000Y-101971000D02*
X177443000Y-100862000D01*
X177443000Y-98782000D02*
X177443000Y-97673000D01*
X177483000Y-101944000D02*
X177483000Y-100862000D01*
X177483000Y-98782000D02*
X177483000Y-97700000D01*
X177523000Y-101917000D02*
X177523000Y-100862000D01*
X177523000Y-98782000D02*
X177523000Y-97727000D01*
X177563000Y-101887000D02*
X177563000Y-100862000D01*
X177563000Y-98782000D02*
X177563000Y-97757000D01*
X177603000Y-101857000D02*
X177603000Y-100862000D01*
X177603000Y-98782000D02*
X177603000Y-97787000D01*
X177643000Y-101826000D02*
X177643000Y-100862000D01*
X177643000Y-98782000D02*
X177643000Y-97818000D01*
X177683000Y-101793000D02*
X177683000Y-100862000D01*
X177683000Y-98782000D02*
X177683000Y-97851000D01*
X177723000Y-101759000D02*
X177723000Y-100862000D01*
X177723000Y-98782000D02*
X177723000Y-97885000D01*
X177763000Y-101723000D02*
X177763000Y-100862000D01*
X177763000Y-98782000D02*
X177763000Y-97921000D01*
X177803000Y-101686000D02*
X177803000Y-100862000D01*
X177803000Y-98782000D02*
X177803000Y-97958000D01*
X177843000Y-101648000D02*
X177843000Y-100862000D01*
X177843000Y-98782000D02*
X177843000Y-97996000D01*
X177883000Y-101607000D02*
X177883000Y-100862000D01*
X177883000Y-98782000D02*
X177883000Y-98037000D01*
X177923000Y-101565000D02*
X177923000Y-100862000D01*
X177923000Y-98782000D02*
X177923000Y-98079000D01*
X177963000Y-101521000D02*
X177963000Y-100862000D01*
X177963000Y-98782000D02*
X177963000Y-98123000D01*
X178003000Y-101475000D02*
X178003000Y-100862000D01*
X178003000Y-98782000D02*
X178003000Y-98169000D01*
X178043000Y-101427000D02*
X178043000Y-100862000D01*
X178043000Y-98782000D02*
X178043000Y-98217000D01*
X178083000Y-101376000D02*
X178083000Y-100862000D01*
X178083000Y-98782000D02*
X178083000Y-98268000D01*
X178123000Y-101322000D02*
X178123000Y-100862000D01*
X178123000Y-98782000D02*
X178123000Y-98322000D01*
X178163000Y-101265000D02*
X178163000Y-100862000D01*
X178163000Y-98782000D02*
X178163000Y-98379000D01*
X178203000Y-101205000D02*
X178203000Y-100862000D01*
X178203000Y-98782000D02*
X178203000Y-98439000D01*
X178243000Y-101141000D02*
X178243000Y-100862000D01*
X178243000Y-98782000D02*
X178243000Y-98503000D01*
X178283000Y-101073000D02*
X178283000Y-100862000D01*
X178283000Y-98782000D02*
X178283000Y-98571000D01*
X178323000Y-101000000D02*
X178323000Y-98644000D01*
X178363000Y-100920000D02*
X178363000Y-98724000D01*
X178403000Y-100833000D02*
X178403000Y-98811000D01*
X178443000Y-100737000D02*
X178443000Y-98907000D01*
X178483000Y-100627000D02*
X178483000Y-99017000D01*
X178523000Y-100499000D02*
X178523000Y-99145000D01*
X178563000Y-100340000D02*
X178563000Y-99304000D01*
X178603000Y-100106000D02*
X178603000Y-99538000D01*
X173197225Y-101297000D02*
X173697225Y-101297000D01*
X173447225Y-101547000D02*
X173447225Y-101047000D01*
X178662000Y-105664000D02*
G75*
G03*
X178662000Y-105664000I-2620000J0D01*
G01*
X176042000Y-103084000D02*
X176042000Y-108244000D01*
X176002000Y-103084000D02*
X176002000Y-108244000D01*
X175962000Y-103085000D02*
X175962000Y-108243000D01*
X175922000Y-103086000D02*
X175922000Y-108242000D01*
X175882000Y-103088000D02*
X175882000Y-108240000D01*
X175842000Y-103091000D02*
X175842000Y-108237000D01*
X175802000Y-103095000D02*
X175802000Y-104624000D01*
X175802000Y-106704000D02*
X175802000Y-108233000D01*
X175762000Y-103099000D02*
X175762000Y-104624000D01*
X175762000Y-106704000D02*
X175762000Y-108229000D01*
X175722000Y-103103000D02*
X175722000Y-104624000D01*
X175722000Y-106704000D02*
X175722000Y-108225000D01*
X175682000Y-103108000D02*
X175682000Y-104624000D01*
X175682000Y-106704000D02*
X175682000Y-108220000D01*
X175642000Y-103114000D02*
X175642000Y-104624000D01*
X175642000Y-106704000D02*
X175642000Y-108214000D01*
X175602000Y-103121000D02*
X175602000Y-104624000D01*
X175602000Y-106704000D02*
X175602000Y-108207000D01*
X175562000Y-103128000D02*
X175562000Y-104624000D01*
X175562000Y-106704000D02*
X175562000Y-108200000D01*
X175522000Y-103136000D02*
X175522000Y-104624000D01*
X175522000Y-106704000D02*
X175522000Y-108192000D01*
X175482000Y-103144000D02*
X175482000Y-104624000D01*
X175482000Y-106704000D02*
X175482000Y-108184000D01*
X175442000Y-103153000D02*
X175442000Y-104624000D01*
X175442000Y-106704000D02*
X175442000Y-108175000D01*
X175402000Y-103163000D02*
X175402000Y-104624000D01*
X175402000Y-106704000D02*
X175402000Y-108165000D01*
X175362000Y-103173000D02*
X175362000Y-104624000D01*
X175362000Y-106704000D02*
X175362000Y-108155000D01*
X175321000Y-103184000D02*
X175321000Y-104624000D01*
X175321000Y-106704000D02*
X175321000Y-108144000D01*
X175281000Y-103196000D02*
X175281000Y-104624000D01*
X175281000Y-106704000D02*
X175281000Y-108132000D01*
X175241000Y-103209000D02*
X175241000Y-104624000D01*
X175241000Y-106704000D02*
X175241000Y-108119000D01*
X175201000Y-103222000D02*
X175201000Y-104624000D01*
X175201000Y-106704000D02*
X175201000Y-108106000D01*
X175161000Y-103236000D02*
X175161000Y-104624000D01*
X175161000Y-106704000D02*
X175161000Y-108092000D01*
X175121000Y-103250000D02*
X175121000Y-104624000D01*
X175121000Y-106704000D02*
X175121000Y-108078000D01*
X175081000Y-103266000D02*
X175081000Y-104624000D01*
X175081000Y-106704000D02*
X175081000Y-108062000D01*
X175041000Y-103282000D02*
X175041000Y-104624000D01*
X175041000Y-106704000D02*
X175041000Y-108046000D01*
X175001000Y-103299000D02*
X175001000Y-104624000D01*
X175001000Y-106704000D02*
X175001000Y-108029000D01*
X174961000Y-103316000D02*
X174961000Y-104624000D01*
X174961000Y-106704000D02*
X174961000Y-108012000D01*
X174921000Y-103335000D02*
X174921000Y-104624000D01*
X174921000Y-106704000D02*
X174921000Y-107993000D01*
X174881000Y-103354000D02*
X174881000Y-104624000D01*
X174881000Y-106704000D02*
X174881000Y-107974000D01*
X174841000Y-103374000D02*
X174841000Y-104624000D01*
X174841000Y-106704000D02*
X174841000Y-107954000D01*
X174801000Y-103396000D02*
X174801000Y-104624000D01*
X174801000Y-106704000D02*
X174801000Y-107932000D01*
X174761000Y-103417000D02*
X174761000Y-104624000D01*
X174761000Y-106704000D02*
X174761000Y-107911000D01*
X174721000Y-103440000D02*
X174721000Y-104624000D01*
X174721000Y-106704000D02*
X174721000Y-107888000D01*
X174681000Y-103464000D02*
X174681000Y-104624000D01*
X174681000Y-106704000D02*
X174681000Y-107864000D01*
X174641000Y-103489000D02*
X174641000Y-104624000D01*
X174641000Y-106704000D02*
X174641000Y-107839000D01*
X174601000Y-103515000D02*
X174601000Y-104624000D01*
X174601000Y-106704000D02*
X174601000Y-107813000D01*
X174561000Y-103542000D02*
X174561000Y-104624000D01*
X174561000Y-106704000D02*
X174561000Y-107786000D01*
X174521000Y-103569000D02*
X174521000Y-104624000D01*
X174521000Y-106704000D02*
X174521000Y-107759000D01*
X174481000Y-103599000D02*
X174481000Y-104624000D01*
X174481000Y-106704000D02*
X174481000Y-107729000D01*
X174441000Y-103629000D02*
X174441000Y-104624000D01*
X174441000Y-106704000D02*
X174441000Y-107699000D01*
X174401000Y-103660000D02*
X174401000Y-104624000D01*
X174401000Y-106704000D02*
X174401000Y-107668000D01*
X174361000Y-103693000D02*
X174361000Y-104624000D01*
X174361000Y-106704000D02*
X174361000Y-107635000D01*
X174321000Y-103727000D02*
X174321000Y-104624000D01*
X174321000Y-106704000D02*
X174321000Y-107601000D01*
X174281000Y-103763000D02*
X174281000Y-104624000D01*
X174281000Y-106704000D02*
X174281000Y-107565000D01*
X174241000Y-103800000D02*
X174241000Y-104624000D01*
X174241000Y-106704000D02*
X174241000Y-107528000D01*
X174201000Y-103838000D02*
X174201000Y-104624000D01*
X174201000Y-106704000D02*
X174201000Y-107490000D01*
X174161000Y-103879000D02*
X174161000Y-104624000D01*
X174161000Y-106704000D02*
X174161000Y-107449000D01*
X174121000Y-103921000D02*
X174121000Y-104624000D01*
X174121000Y-106704000D02*
X174121000Y-107407000D01*
X174081000Y-103965000D02*
X174081000Y-104624000D01*
X174081000Y-106704000D02*
X174081000Y-107363000D01*
X174041000Y-104011000D02*
X174041000Y-104624000D01*
X174041000Y-106704000D02*
X174041000Y-107317000D01*
X174001000Y-104059000D02*
X174001000Y-104624000D01*
X174001000Y-106704000D02*
X174001000Y-107269000D01*
X173961000Y-104110000D02*
X173961000Y-104624000D01*
X173961000Y-106704000D02*
X173961000Y-107218000D01*
X173921000Y-104164000D02*
X173921000Y-104624000D01*
X173921000Y-106704000D02*
X173921000Y-107164000D01*
X173881000Y-104221000D02*
X173881000Y-104624000D01*
X173881000Y-106704000D02*
X173881000Y-107107000D01*
X173841000Y-104281000D02*
X173841000Y-104624000D01*
X173841000Y-106704000D02*
X173841000Y-107047000D01*
X173801000Y-104345000D02*
X173801000Y-104624000D01*
X173801000Y-106704000D02*
X173801000Y-106983000D01*
X173761000Y-104413000D02*
X173761000Y-104624000D01*
X173761000Y-106704000D02*
X173761000Y-106915000D01*
X173721000Y-104486000D02*
X173721000Y-106842000D01*
X173681000Y-104566000D02*
X173681000Y-106762000D01*
X173641000Y-104653000D02*
X173641000Y-106675000D01*
X173601000Y-104749000D02*
X173601000Y-106579000D01*
X173561000Y-104859000D02*
X173561000Y-106469000D01*
X173521000Y-104987000D02*
X173521000Y-106341000D01*
X173481000Y-105146000D02*
X173481000Y-106182000D01*
X173441000Y-105380000D02*
X173441000Y-105948000D01*
X178846775Y-104189000D02*
X178346775Y-104189000D01*
X178596775Y-103939000D02*
X178596775Y-104439000D01*
D12*
X181051000Y-103094000D02*
X181051000Y-106904000D01*
X181686000Y-102459000D02*
X181051000Y-103094000D01*
X181051000Y-106904000D02*
X181686000Y-107539000D01*
D13*
X123818380Y-109386761D02*
X123342190Y-109053428D01*
X123818380Y-108815333D02*
X122818380Y-108815333D01*
X122818380Y-109196285D01*
X122866000Y-109291523D01*
X122913619Y-109339142D01*
X123008857Y-109386761D01*
X123151714Y-109386761D01*
X123246952Y-109339142D01*
X123294571Y-109291523D01*
X123342190Y-109196285D01*
X123342190Y-108815333D01*
X122818380Y-109672476D02*
X123818380Y-110005809D01*
X122818380Y-110339142D01*
X123818380Y-111196285D02*
X123818380Y-110624857D01*
X123818380Y-110910571D02*
X122818380Y-110910571D01*
X122961238Y-110815333D01*
X123056476Y-110720095D01*
X123104095Y-110624857D01*
X165702380Y-113117333D02*
X165226190Y-112784000D01*
X165702380Y-112545904D02*
X164702380Y-112545904D01*
X164702380Y-112926857D01*
X164750000Y-113022095D01*
X164797619Y-113069714D01*
X164892857Y-113117333D01*
X165035714Y-113117333D01*
X165130952Y-113069714D01*
X165178571Y-113022095D01*
X165226190Y-112926857D01*
X165226190Y-112545904D01*
X164702380Y-113450666D02*
X164702380Y-114117333D01*
X165702380Y-113688761D01*
X148589904Y-96226380D02*
X148589904Y-97035904D01*
X148542285Y-97131142D01*
X148494666Y-97178761D01*
X148399428Y-97226380D01*
X148208952Y-97226380D01*
X148113714Y-97178761D01*
X148066095Y-97131142D01*
X148018476Y-97035904D01*
X148018476Y-96226380D01*
X147018476Y-97226380D02*
X147589904Y-97226380D01*
X147304190Y-97226380D02*
X147304190Y-96226380D01*
X147399428Y-96369238D01*
X147494666Y-96464476D01*
X147589904Y-96512095D01*
X134834190Y-96972380D02*
X134834190Y-95972380D01*
X133786571Y-96877142D02*
X133834190Y-96924761D01*
X133977047Y-96972380D01*
X134072285Y-96972380D01*
X134215142Y-96924761D01*
X134310380Y-96829523D01*
X134358000Y-96734285D01*
X134405619Y-96543809D01*
X134405619Y-96400952D01*
X134358000Y-96210476D01*
X134310380Y-96115238D01*
X134215142Y-96020000D01*
X134072285Y-95972380D01*
X133977047Y-95972380D01*
X133834190Y-96020000D01*
X133786571Y-96067619D01*
X133405619Y-96067619D02*
X133358000Y-96020000D01*
X133262761Y-95972380D01*
X133024666Y-95972380D01*
X132929428Y-96020000D01*
X132881809Y-96067619D01*
X132834190Y-96162857D01*
X132834190Y-96258095D01*
X132881809Y-96400952D01*
X133453238Y-96972380D01*
X132834190Y-96972380D01*
X155836857Y-102426380D02*
X156170190Y-101950190D01*
X156408285Y-102426380D02*
X156408285Y-101426380D01*
X156027333Y-101426380D01*
X155932095Y-101474000D01*
X155884476Y-101521619D01*
X155836857Y-101616857D01*
X155836857Y-101759714D01*
X155884476Y-101854952D01*
X155932095Y-101902571D01*
X156027333Y-101950190D01*
X156408285Y-101950190D01*
X154884476Y-102426380D02*
X155455904Y-102426380D01*
X155170190Y-102426380D02*
X155170190Y-101426380D01*
X155265428Y-101569238D01*
X155360666Y-101664476D01*
X155455904Y-101712095D01*
X153932095Y-102426380D02*
X154503523Y-102426380D01*
X154217809Y-102426380D02*
X154217809Y-101426380D01*
X154313047Y-101569238D01*
X154408285Y-101664476D01*
X154503523Y-101712095D01*
X112616380Y-103751142D02*
X112140190Y-103417809D01*
X112616380Y-103179714D02*
X111616380Y-103179714D01*
X111616380Y-103560666D01*
X111664000Y-103655904D01*
X111711619Y-103703523D01*
X111806857Y-103751142D01*
X111949714Y-103751142D01*
X112044952Y-103703523D01*
X112092571Y-103655904D01*
X112140190Y-103560666D01*
X112140190Y-103179714D01*
X112616380Y-104703523D02*
X112616380Y-104132095D01*
X112616380Y-104417809D02*
X111616380Y-104417809D01*
X111759238Y-104322571D01*
X111854476Y-104227333D01*
X111902095Y-104132095D01*
X111616380Y-105322571D02*
X111616380Y-105417809D01*
X111664000Y-105513047D01*
X111711619Y-105560666D01*
X111806857Y-105608285D01*
X111997333Y-105655904D01*
X112235428Y-105655904D01*
X112425904Y-105608285D01*
X112521142Y-105560666D01*
X112568761Y-105513047D01*
X112616380Y-105417809D01*
X112616380Y-105322571D01*
X112568761Y-105227333D01*
X112521142Y-105179714D01*
X112425904Y-105132095D01*
X112235428Y-105084476D01*
X111997333Y-105084476D01*
X111806857Y-105132095D01*
X111711619Y-105179714D01*
X111664000Y-105227333D01*
X111616380Y-105322571D01*
X178941000Y-97803857D02*
X178976714Y-97839571D01*
X179083857Y-97875285D01*
X179155285Y-97875285D01*
X179262428Y-97839571D01*
X179333857Y-97768142D01*
X179369571Y-97696714D01*
X179405285Y-97553857D01*
X179405285Y-97446714D01*
X179369571Y-97303857D01*
X179333857Y-97232428D01*
X179262428Y-97161000D01*
X179155285Y-97125285D01*
X179083857Y-97125285D01*
X178976714Y-97161000D01*
X178941000Y-97196714D01*
X178691000Y-97125285D02*
X178226714Y-97125285D01*
X178476714Y-97411000D01*
X178369571Y-97411000D01*
X178298142Y-97446714D01*
X178262428Y-97482428D01*
X178226714Y-97553857D01*
X178226714Y-97732428D01*
X178262428Y-97803857D01*
X178298142Y-97839571D01*
X178369571Y-97875285D01*
X178583857Y-97875285D01*
X178655285Y-97839571D01*
X178691000Y-97803857D01*
X173607000Y-108671857D02*
X173642714Y-108707571D01*
X173749857Y-108743285D01*
X173821285Y-108743285D01*
X173928428Y-108707571D01*
X173999857Y-108636142D01*
X174035571Y-108564714D01*
X174071285Y-108421857D01*
X174071285Y-108314714D01*
X174035571Y-108171857D01*
X173999857Y-108100428D01*
X173928428Y-108029000D01*
X173821285Y-107993285D01*
X173749857Y-107993285D01*
X173642714Y-108029000D01*
X173607000Y-108064714D01*
X173321285Y-108064714D02*
X173285571Y-108029000D01*
X173214142Y-107993285D01*
X173035571Y-107993285D01*
X172964142Y-108029000D01*
X172928428Y-108064714D01*
X172892714Y-108136142D01*
X172892714Y-108207571D01*
X172928428Y-108314714D01*
X173357000Y-108743285D01*
X172892714Y-108743285D01*
D14*
X194361707Y-105712550D02*
X194878778Y-106074500D01*
X194361707Y-106333036D02*
X195447557Y-106333036D01*
X195447557Y-105919378D01*
X195395850Y-105815964D01*
X195344142Y-105764257D01*
X195240728Y-105712550D01*
X195085607Y-105712550D01*
X194982192Y-105764257D01*
X194930485Y-105815964D01*
X194878778Y-105919378D01*
X194878778Y-106333036D01*
X194930485Y-105247186D02*
X194930485Y-104885236D01*
X194361707Y-104730114D02*
X194361707Y-105247186D01*
X195447557Y-105247186D01*
X195447557Y-104730114D01*
X194361707Y-104264750D02*
X195447557Y-104264750D01*
X195447557Y-104006214D01*
X195395850Y-103851093D01*
X195292435Y-103747678D01*
X195189021Y-103695971D01*
X194982192Y-103644264D01*
X194827071Y-103644264D01*
X194620242Y-103695971D01*
X194516828Y-103747678D01*
X194413414Y-103851093D01*
X194361707Y-104006214D01*
X194361707Y-104264750D01*
D15*
X192419514Y-100765610D02*
X192419514Y-101868695D01*
X182698390Y-101233514D02*
X181595304Y-101233514D01*
X182146847Y-101785057D02*
X182146847Y-100681971D01*
D16*
X184442100Y-100757358D02*
X184407628Y-100688415D01*
X184407628Y-100585001D01*
X184442100Y-100481587D01*
X184511042Y-100412644D01*
X184579985Y-100378172D01*
X184717871Y-100343701D01*
X184821285Y-100343701D01*
X184959171Y-100378172D01*
X185028114Y-100412644D01*
X185097057Y-100481587D01*
X185131528Y-100585001D01*
X185131528Y-100653944D01*
X185097057Y-100757358D01*
X185062585Y-100791829D01*
X184821285Y-100791829D01*
X184821285Y-100653944D01*
X185131528Y-101102072D02*
X184407628Y-101102072D01*
X185131528Y-101515729D01*
X184407628Y-101515729D01*
X185131528Y-101860444D02*
X184407628Y-101860444D01*
X184407628Y-102032801D01*
X184442100Y-102136215D01*
X184511042Y-102205158D01*
X184579985Y-102239629D01*
X184717871Y-102274101D01*
X184821285Y-102274101D01*
X184959171Y-102239629D01*
X185028114Y-102205158D01*
X185097057Y-102136215D01*
X185131528Y-102032801D01*
X185131528Y-101860444D01*
X186982100Y-100633076D02*
X186947628Y-100564133D01*
X186947628Y-100460719D01*
X186982100Y-100357305D01*
X187051042Y-100288362D01*
X187119985Y-100253890D01*
X187257871Y-100219419D01*
X187361285Y-100219419D01*
X187499171Y-100253890D01*
X187568114Y-100288362D01*
X187637057Y-100357305D01*
X187671528Y-100460719D01*
X187671528Y-100529662D01*
X187637057Y-100633076D01*
X187602585Y-100667547D01*
X187361285Y-100667547D01*
X187361285Y-100529662D01*
X187671528Y-100977790D02*
X186947628Y-100977790D01*
X187671528Y-101391447D01*
X186947628Y-101391447D01*
X187671528Y-101736162D02*
X186947628Y-101736162D01*
X186947628Y-101908519D01*
X186982100Y-102011933D01*
X187051042Y-102080876D01*
X187119985Y-102115347D01*
X187257871Y-102149819D01*
X187361285Y-102149819D01*
X187499171Y-102115347D01*
X187568114Y-102080876D01*
X187637057Y-102011933D01*
X187671528Y-101908519D01*
X187671528Y-101736162D01*
X189522100Y-100702792D02*
X189487628Y-100633849D01*
X189487628Y-100530435D01*
X189522100Y-100427021D01*
X189591042Y-100358078D01*
X189659985Y-100323606D01*
X189797871Y-100289135D01*
X189901285Y-100289135D01*
X190039171Y-100323606D01*
X190108114Y-100358078D01*
X190177057Y-100427021D01*
X190211528Y-100530435D01*
X190211528Y-100599378D01*
X190177057Y-100702792D01*
X190142585Y-100737263D01*
X189901285Y-100737263D01*
X189901285Y-100599378D01*
X190211528Y-101047506D02*
X189487628Y-101047506D01*
X190211528Y-101461163D01*
X189487628Y-101461163D01*
X190211528Y-101805878D02*
X189487628Y-101805878D01*
X189487628Y-101978235D01*
X189522100Y-102081649D01*
X189591042Y-102150592D01*
X189659985Y-102185063D01*
X189797871Y-102219535D01*
X189901285Y-102219535D01*
X190039171Y-102185063D01*
X190108114Y-102150592D01*
X190177057Y-102081649D01*
X190211528Y-101978235D01*
X190211528Y-101805878D01*
D17*
X179872216Y-107272328D02*
X180716766Y-107272328D01*
X180716766Y-106950594D01*
X180676550Y-106870161D01*
X180636333Y-106829944D01*
X180555900Y-106789728D01*
X180435250Y-106789728D01*
X180354816Y-106829944D01*
X180314600Y-106870161D01*
X180274383Y-106950594D01*
X180274383Y-107272328D01*
X180716766Y-106266911D02*
X180716766Y-106106044D01*
X180676550Y-106025611D01*
X180596116Y-105945178D01*
X180435250Y-105904961D01*
X180153733Y-105904961D01*
X179992866Y-105945178D01*
X179912433Y-106025611D01*
X179872216Y-106106044D01*
X179872216Y-106266911D01*
X179912433Y-106347344D01*
X179992866Y-106427778D01*
X180153733Y-106467994D01*
X180435250Y-106467994D01*
X180596116Y-106427778D01*
X180676550Y-106347344D01*
X180716766Y-106266911D01*
X180716766Y-105623444D02*
X179872216Y-105422361D01*
X180475466Y-105261494D01*
X179872216Y-105100628D01*
X180716766Y-104899544D01*
X180314600Y-104577811D02*
X180314600Y-104296294D01*
X179872216Y-104175644D02*
X179872216Y-104577811D01*
X180716766Y-104577811D01*
X180716766Y-104175644D01*
X179872216Y-103331094D02*
X180274383Y-103612611D01*
X179872216Y-103813694D02*
X180716766Y-103813694D01*
X180716766Y-103491961D01*
X180676550Y-103411528D01*
X180636333Y-103371311D01*
X180555900Y-103331094D01*
X180435250Y-103331094D01*
X180354816Y-103371311D01*
X180314600Y-103411528D01*
X180274383Y-103491961D01*
X180274383Y-103813694D01*
M02*
