G04 #@! TF.GenerationSoftware,KiCad,Pcbnew,5.1.6-c6e7f7d~86~ubuntu18.04.1*
G04 #@! TF.CreationDate,2020-07-10T20:36:52+01:00*
G04 #@! TF.ProjectId,acid-casualty-v2,61636964-2d63-4617-9375-616c74792d76,rev?*
G04 #@! TF.SameCoordinates,Original*
G04 #@! TF.FileFunction,Copper,L2,Bot*
G04 #@! TF.FilePolarity,Positive*
%FSLAX46Y46*%
G04 Gerber Fmt 4.6, Leading zero omitted, Abs format (unit mm)*
G04 Created by KiCad (PCBNEW 5.1.6-c6e7f7d~86~ubuntu18.04.1) date 2020-07-10 20:36:52*
%MOMM*%
%LPD*%
G01*
G04 APERTURE LIST*
G04 #@! TA.AperFunction,ComponentPad*
%ADD10C,1.600000*%
G04 #@! TD*
G04 #@! TA.AperFunction,SMDPad,CuDef*
%ADD11R,1.300000X1.300000*%
G04 #@! TD*
G04 #@! TA.AperFunction,SMDPad,CuDef*
%ADD12R,1.300000X2.000000*%
G04 #@! TD*
G04 #@! TA.AperFunction,ComponentPad*
%ADD13O,1.600000X1.600000*%
G04 #@! TD*
G04 #@! TA.AperFunction,ComponentPad*
%ADD14C,1.150000*%
G04 #@! TD*
G04 #@! TA.AperFunction,ComponentPad*
%ADD15C,1.440000*%
G04 #@! TD*
G04 #@! TA.AperFunction,ComponentPad*
%ADD16R,1.600000X1.600000*%
G04 #@! TD*
G04 #@! TA.AperFunction,ComponentPad*
%ADD17R,1.300000X1.300000*%
G04 #@! TD*
G04 #@! TA.AperFunction,ComponentPad*
%ADD18C,1.300000*%
G04 #@! TD*
G04 #@! TA.AperFunction,ComponentPad*
%ADD19C,2.000000*%
G04 #@! TD*
G04 #@! TA.AperFunction,ComponentPad*
%ADD20C,1.320800*%
G04 #@! TD*
G04 #@! TA.AperFunction,ComponentPad*
%ADD21C,1.879600*%
G04 #@! TD*
G04 #@! TA.AperFunction,ComponentPad*
%ADD22C,1.650000*%
G04 #@! TD*
G04 #@! TA.AperFunction,ComponentPad*
%ADD23C,2.794000*%
G04 #@! TD*
G04 #@! TA.AperFunction,ComponentPad*
%ADD24R,1.650000X1.650000*%
G04 #@! TD*
G04 #@! TA.AperFunction,ComponentPad*
%ADD25C,1.422400*%
G04 #@! TD*
G04 #@! TA.AperFunction,ViaPad*
%ADD26C,0.800000*%
G04 #@! TD*
G04 #@! TA.AperFunction,Conductor*
%ADD27C,0.250000*%
G04 #@! TD*
G04 APERTURE END LIST*
D10*
X178054000Y-94956000D03*
X178054000Y-92456000D03*
D11*
X125266000Y-108832000D03*
D12*
X130766000Y-109982000D03*
D11*
X125266000Y-111132000D03*
D13*
X139446000Y-103378000D03*
D10*
X139446000Y-105918000D03*
D13*
X126492000Y-93472000D03*
D10*
X126492000Y-96012000D03*
D14*
X131582000Y-102870000D03*
X130942000Y-117870000D03*
X136022000Y-117870000D03*
G04 #@! TA.AperFunction,ComponentPad*
G36*
G01*
X135094500Y-102295000D02*
X135669500Y-102295000D01*
G75*
G02*
X135957000Y-102582500I0J-287500D01*
G01*
X135957000Y-103157500D01*
G75*
G02*
X135669500Y-103445000I-287500J0D01*
G01*
X135094500Y-103445000D01*
G75*
G02*
X134807000Y-103157500I0J287500D01*
G01*
X134807000Y-102582500D01*
G75*
G02*
X135094500Y-102295000I287500J0D01*
G01*
G37*
G04 #@! TD.AperFunction*
X120660000Y-102870000D03*
X120020000Y-117870000D03*
X125100000Y-117870000D03*
G04 #@! TA.AperFunction,ComponentPad*
G36*
G01*
X124172500Y-102295000D02*
X124747500Y-102295000D01*
G75*
G02*
X125035000Y-102582500I0J-287500D01*
G01*
X125035000Y-103157500D01*
G75*
G02*
X124747500Y-103445000I-287500J0D01*
G01*
X124172500Y-103445000D01*
G75*
G02*
X123885000Y-103157500I0J287500D01*
G01*
X123885000Y-102582500D01*
G75*
G02*
X124172500Y-102295000I287500J0D01*
G01*
G37*
G04 #@! TD.AperFunction*
D15*
X168910000Y-110744000D03*
X168910000Y-113284000D03*
X168910000Y-115824000D03*
D13*
X144272000Y-92710000D03*
X151892000Y-100330000D03*
X144272000Y-95250000D03*
X151892000Y-97790000D03*
X144272000Y-97790000D03*
X151892000Y-95250000D03*
X144272000Y-100330000D03*
D16*
X151892000Y-92710000D03*
D13*
X129794000Y-92456000D03*
X137414000Y-100076000D03*
X129794000Y-94996000D03*
X137414000Y-97536000D03*
X129794000Y-97536000D03*
X137414000Y-94996000D03*
X129794000Y-100076000D03*
D16*
X137414000Y-92456000D03*
D15*
X157734000Y-105634000D03*
X155194000Y-105634000D03*
X152654000Y-105634000D03*
X115824000Y-101854000D03*
X115824000Y-104394000D03*
X115824000Y-106934000D03*
D13*
X110490000Y-108458000D03*
D10*
X107950000Y-108458000D03*
D13*
X163271000Y-104999000D03*
D10*
X165811000Y-104999000D03*
D13*
X145796000Y-103886000D03*
D10*
X148336000Y-103886000D03*
D13*
X110490000Y-99822000D03*
D10*
X107950000Y-99822000D03*
D13*
X142494000Y-103378000D03*
D10*
X142494000Y-105918000D03*
D13*
X179324000Y-117699000D03*
D10*
X179324000Y-115159000D03*
D13*
X184226000Y-110714000D03*
D10*
X181686000Y-110714000D03*
D17*
X170875000Y-94850000D03*
D18*
X170875000Y-92310000D03*
X169605000Y-93580000D03*
D19*
X123190000Y-93806000D03*
X123190000Y-98806000D03*
D10*
X140970000Y-100544000D03*
X140970000Y-98044000D03*
D19*
X119888000Y-98726000D03*
X119888000Y-93726000D03*
D10*
X177252000Y-99822000D03*
D16*
X174752000Y-99822000D03*
D10*
X174792000Y-105664000D03*
D16*
X177292000Y-105664000D03*
D10*
X116586000Y-93766000D03*
X116586000Y-96266000D03*
X178014000Y-110236000D03*
X175514000Y-110236000D03*
X141046000Y-92242000D03*
X141046000Y-94742000D03*
X113284000Y-96226000D03*
X113284000Y-93726000D03*
X176276000Y-115102000D03*
X176276000Y-117602000D03*
X173228000Y-115102000D03*
X173228000Y-117602000D03*
X174752000Y-94956000D03*
X174752000Y-92456000D03*
X172172000Y-98298000D03*
X169672000Y-98298000D03*
D20*
X172161000Y-106904000D03*
X169621000Y-106904000D03*
X169621000Y-104364000D03*
X172161000Y-104364000D03*
D21*
X182321000Y-103602000D03*
X184861000Y-103856000D03*
X187401000Y-103602000D03*
X189941000Y-103856000D03*
X192481000Y-103602000D03*
X182321000Y-106142000D03*
X184861000Y-106396000D03*
X187401000Y-106142000D03*
X189941000Y-106396000D03*
X192481000Y-106142000D03*
D22*
X182171000Y-96108600D03*
X185171000Y-96108600D03*
X193671000Y-96108600D03*
D23*
X162001000Y-92878600D03*
X162001000Y-101878600D03*
D22*
X155001000Y-99878600D03*
X155001000Y-97378600D03*
D24*
X155001000Y-94878600D03*
D23*
X148031000Y-108119000D03*
X148031000Y-117119000D03*
D22*
X141031000Y-115119000D03*
X141031000Y-112619000D03*
D24*
X141031000Y-110119000D03*
D23*
X162001000Y-108119000D03*
X162001000Y-117119000D03*
D22*
X155001000Y-115119000D03*
X155001000Y-112619000D03*
D24*
X155001000Y-110119000D03*
D22*
X182171000Y-113889000D03*
X185171000Y-113889000D03*
X193671000Y-113889000D03*
X115161000Y-114524000D03*
X112161000Y-114524000D03*
X103661000Y-114524000D03*
D25*
X109931000Y-95473600D03*
X107391000Y-95473600D03*
X104851000Y-95473600D03*
X109931000Y-104364000D03*
X107391000Y-104364000D03*
X104851000Y-104364000D03*
D26*
X132960600Y-106648300D03*
D27*
X130964800Y-91272600D02*
X131165500Y-91071900D01*
X131165500Y-91071900D02*
X141508600Y-91071900D01*
X141508600Y-91071900D02*
X143146700Y-92710000D01*
X104851000Y-95473600D02*
X109052000Y-91272600D01*
X109052000Y-91272600D02*
X130964800Y-91272600D01*
X130964800Y-91272600D02*
X130964800Y-97992100D01*
X130964800Y-97992100D02*
X130292100Y-98664800D01*
X130292100Y-98664800D02*
X129311100Y-98664800D01*
X129311100Y-98664800D02*
X127657100Y-97010800D01*
X127657100Y-97010800D02*
X127657100Y-95537000D01*
X127657100Y-95537000D02*
X126955600Y-94835500D01*
X126955600Y-94835500D02*
X126038900Y-94835500D01*
X126038900Y-94835500D02*
X125361600Y-95512800D01*
X125361600Y-95512800D02*
X125361600Y-107761100D01*
X125361600Y-107761100D02*
X125266000Y-107856700D01*
X125266000Y-108832000D02*
X125266000Y-107856700D01*
X144272000Y-92710000D02*
X143146700Y-92710000D01*
X185171000Y-96108600D02*
X184018400Y-94956000D01*
X184018400Y-94956000D02*
X178054000Y-94956000D01*
X135382000Y-102870000D02*
X136270500Y-102870000D01*
X136270500Y-102870000D02*
X139708200Y-99432300D01*
X139708200Y-99432300D02*
X139708200Y-96079800D01*
X139708200Y-96079800D02*
X141046000Y-94742000D01*
X188163000Y-105380000D02*
X188163000Y-104364000D01*
X187401000Y-106142000D02*
X188163000Y-105380000D01*
X189941000Y-106396000D02*
X189179000Y-106396000D01*
X189179000Y-106396000D02*
X188163000Y-105380000D01*
X188163000Y-104364000D02*
X187401000Y-103602000D01*
X188163000Y-104364000D02*
X189433000Y-104364000D01*
X189433000Y-104364000D02*
X189941000Y-103856000D01*
X184861000Y-106142000D02*
X184861000Y-103856000D01*
X184861000Y-106396000D02*
X184861000Y-106142000D01*
X184861000Y-106142000D02*
X187401000Y-106142000D01*
X155001000Y-94878600D02*
X156151300Y-94878600D01*
X162001000Y-92878600D02*
X158151300Y-92878600D01*
X158151300Y-92878600D02*
X156151300Y-94878600D01*
X155001000Y-94878600D02*
X155001000Y-96028900D01*
X151892000Y-100330000D02*
X151892000Y-99204700D01*
X151892000Y-99204700D02*
X152134200Y-99204700D01*
X152134200Y-99204700D02*
X153850700Y-97488200D01*
X153850700Y-97488200D02*
X153850700Y-96891500D01*
X153850700Y-96891500D02*
X154713300Y-96028900D01*
X154713300Y-96028900D02*
X155001000Y-96028900D01*
X169621000Y-102474400D02*
X169672000Y-102423400D01*
X169672000Y-102423400D02*
X169672000Y-99822000D01*
X162001000Y-102474400D02*
X169621000Y-102474400D01*
X169621000Y-102474400D02*
X169621000Y-104364000D01*
X162001000Y-102474400D02*
X162001000Y-101878600D01*
X162001000Y-108119000D02*
X162001000Y-102474400D01*
X169672000Y-98298000D02*
X169672000Y-99822000D01*
X169672000Y-99822000D02*
X173626700Y-99822000D01*
X174752000Y-99822000D02*
X173626700Y-99822000D01*
X169605000Y-93580000D02*
X169605000Y-98231000D01*
X169605000Y-98231000D02*
X169672000Y-98298000D01*
X184861000Y-106396000D02*
X182956000Y-108301000D01*
X182956000Y-108301000D02*
X182956000Y-113104000D01*
X182956000Y-113104000D02*
X182171000Y-113889000D01*
X174752000Y-92456000D02*
X178054000Y-92456000D01*
X155001000Y-110119000D02*
X156151300Y-110119000D01*
X158029000Y-112091000D02*
X158029000Y-113147000D01*
X162001000Y-108119000D02*
X158029000Y-112091000D01*
X156151300Y-110119000D02*
X156151300Y-110213300D01*
X156151300Y-110213300D02*
X158029000Y-112091000D01*
X154425900Y-110119000D02*
X155001000Y-110119000D01*
X154425900Y-110119000D02*
X153850700Y-110119000D01*
X158029000Y-113147000D02*
X157307000Y-113869000D01*
X157307000Y-113869000D02*
X151281000Y-113869000D01*
X151281000Y-113869000D02*
X148031000Y-117119000D01*
X162001000Y-117119000D02*
X158029000Y-113147000D01*
X184861000Y-103856000D02*
X184861000Y-99836000D01*
X184861000Y-99836000D02*
X182171000Y-97146000D01*
X182171000Y-97146000D02*
X182171000Y-96108600D01*
X170891000Y-105634000D02*
X169621000Y-104364000D01*
X174792000Y-105664000D02*
X170921000Y-105664000D01*
X170921000Y-105664000D02*
X170891000Y-105634000D01*
X170891000Y-105634000D02*
X169621000Y-106904000D01*
X119888000Y-93726000D02*
X120040000Y-93726000D01*
X120040000Y-93726000D02*
X124532800Y-98218800D01*
X124532800Y-98218800D02*
X124532800Y-102797200D01*
X124532800Y-102797200D02*
X124460000Y-102870000D01*
X124460000Y-102870000D02*
X124290700Y-103039300D01*
X124290700Y-103039300D02*
X124290700Y-111132000D01*
X125266000Y-111132000D02*
X124290700Y-111132000D01*
X115161000Y-114524000D02*
X120898700Y-114524000D01*
X120898700Y-114524000D02*
X124290700Y-111132000D01*
X148031000Y-108119000D02*
X151850700Y-108119000D01*
X151850700Y-108119000D02*
X153850700Y-110119000D01*
X173228000Y-106904000D02*
X172161000Y-106904000D01*
X176166700Y-105664000D02*
X176166700Y-105945300D01*
X176166700Y-105945300D02*
X175208000Y-106904000D01*
X175208000Y-106904000D02*
X173228000Y-106904000D01*
X173228000Y-115102000D02*
X173228000Y-106904000D01*
X184521300Y-113239300D02*
X181466000Y-116294600D01*
X181466000Y-116294600D02*
X174420600Y-116294600D01*
X174420600Y-116294600D02*
X173228000Y-115102000D01*
X177292000Y-105664000D02*
X176166700Y-105664000D01*
X170875000Y-92310000D02*
X172172000Y-93607000D01*
X172172000Y-93607000D02*
X172172000Y-98298000D01*
X184521300Y-113239300D02*
X184226000Y-112944000D01*
X184226000Y-112944000D02*
X184226000Y-110714000D01*
X185171000Y-113889000D02*
X184521300Y-113239300D01*
X137414000Y-100076000D02*
X137414000Y-98950700D01*
X141046000Y-92242000D02*
X138539300Y-94748700D01*
X138539300Y-94748700D02*
X138539300Y-98106800D01*
X138539300Y-98106800D02*
X137695400Y-98950700D01*
X137695400Y-98950700D02*
X137414000Y-98950700D01*
X175391300Y-101682700D02*
X177252000Y-99822000D01*
X172161000Y-104364000D02*
X172710000Y-104364000D01*
X172710000Y-104364000D02*
X175391300Y-101682700D01*
X175391300Y-101682700D02*
X179324000Y-105615500D01*
X179324000Y-105615500D02*
X179324000Y-115159000D01*
X182321000Y-106142000D02*
X181686000Y-106777000D01*
X181686000Y-106777000D02*
X181686000Y-110714000D01*
X192481000Y-106142000D02*
X192481000Y-108242700D01*
X192481000Y-108242700D02*
X183024700Y-117699000D01*
X183024700Y-117699000D02*
X179324000Y-117699000D01*
X192481000Y-103602000D02*
X192481000Y-106142000D01*
X142494000Y-105918000D02*
X140970000Y-104394000D01*
X140970000Y-104394000D02*
X140970000Y-100544000D01*
X145796000Y-103886000D02*
X145796000Y-102760700D01*
X151892000Y-97790000D02*
X150766700Y-97790000D01*
X150766700Y-97790000D02*
X145796000Y-102760700D01*
X116880900Y-103314800D02*
X116880900Y-105877100D01*
X116880900Y-105877100D02*
X115824000Y-106934000D01*
X123190000Y-98806000D02*
X118681200Y-103314800D01*
X118681200Y-103314800D02*
X116880900Y-103314800D01*
X116880900Y-103314800D02*
X115406800Y-103314800D01*
X115406800Y-103314800D02*
X113514000Y-105207600D01*
X113514000Y-105207600D02*
X113514000Y-115202200D01*
X113514000Y-115202200D02*
X116181800Y-117870000D01*
X116181800Y-117870000D02*
X120020000Y-117870000D01*
X129794000Y-94996000D02*
X128668700Y-94996000D01*
X128668700Y-94996000D02*
X128668700Y-94011400D01*
X128668700Y-94011400D02*
X127001800Y-92344500D01*
X127001800Y-92344500D02*
X119351500Y-92344500D01*
X119351500Y-92344500D02*
X118562600Y-93133400D01*
X118562600Y-93133400D02*
X118562600Y-96920000D01*
X118562600Y-96920000D02*
X111615300Y-103867300D01*
X111615300Y-103867300D02*
X111615300Y-106207400D01*
X111615300Y-106207400D02*
X110490000Y-107332700D01*
X129794000Y-97536000D02*
X129794000Y-94996000D01*
X110490000Y-108458000D02*
X110490000Y-107332700D01*
X155001000Y-112619000D02*
X148174000Y-112619000D01*
X148174000Y-112619000D02*
X143554900Y-107999900D01*
X143554900Y-107999900D02*
X137908300Y-107999900D01*
X137908300Y-107999900D02*
X132778400Y-102870000D01*
X132778400Y-102870000D02*
X131582000Y-102870000D01*
X104851000Y-104364000D02*
X107771600Y-101443400D01*
X107771600Y-101443400D02*
X111408600Y-101443400D01*
X111408600Y-101443400D02*
X116586000Y-96266000D01*
X163271000Y-104999000D02*
X163271000Y-106124300D01*
X168910000Y-110744000D02*
X164290300Y-106124300D01*
X164290300Y-106124300D02*
X163271000Y-106124300D01*
X168910000Y-113284000D02*
X168910000Y-110744000D01*
X130501400Y-100783300D02*
X130501300Y-100783400D01*
X130501300Y-100783400D02*
X130501300Y-103062600D01*
X130501300Y-103062600D02*
X132461200Y-105022500D01*
X132461200Y-105022500D02*
X133317400Y-105022500D01*
X133317400Y-105022500D02*
X134770100Y-106475200D01*
X134770100Y-106475200D02*
X134993800Y-106475200D01*
X134993800Y-106475200D02*
X138637600Y-110119000D01*
X138637600Y-110119000D02*
X141031000Y-110119000D01*
X130501400Y-100783300D02*
X136288700Y-94996000D01*
X129794000Y-100076000D02*
X130501400Y-100783300D01*
X137414000Y-94996000D02*
X136288700Y-94996000D01*
X137414000Y-92456000D02*
X137414000Y-94996000D01*
X141031000Y-110119000D02*
X141031000Y-112619000D01*
X103661000Y-114524000D02*
X107950000Y-110235000D01*
X107950000Y-110235000D02*
X107950000Y-108458000D01*
X107391000Y-95473600D02*
X107391000Y-99263000D01*
X107391000Y-99263000D02*
X107950000Y-99822000D01*
X125100000Y-117870000D02*
X123399700Y-116169700D01*
X123399700Y-116169700D02*
X115179700Y-116169700D01*
X115179700Y-116169700D02*
X113983000Y-114973000D01*
X113983000Y-114973000D02*
X113983000Y-106235000D01*
X113983000Y-106235000D02*
X115824000Y-104394000D01*
X141031000Y-115119000D02*
X136399000Y-110487000D01*
X136399000Y-110487000D02*
X136399000Y-109053700D01*
X136399000Y-109053700D02*
X133043100Y-105697800D01*
X133043100Y-105697800D02*
X132489000Y-105697800D01*
X132489000Y-105697800D02*
X126492000Y-99700800D01*
X126492000Y-99700800D02*
X126492000Y-96012000D01*
X151892000Y-95250000D02*
X150766700Y-95250000D01*
X139446000Y-103378000D02*
X139446000Y-100458300D01*
X139446000Y-100458300D02*
X140485700Y-99418600D01*
X140485700Y-99418600D02*
X141248000Y-99418600D01*
X141248000Y-99418600D02*
X142638600Y-98028000D01*
X142638600Y-98028000D02*
X142638600Y-97815800D01*
X142638600Y-97815800D02*
X144079100Y-96375300D01*
X144079100Y-96375300D02*
X149641400Y-96375300D01*
X149641400Y-96375300D02*
X150766700Y-95250000D01*
X130766000Y-109982000D02*
X130766000Y-108656700D01*
X132960600Y-106648300D02*
X130952200Y-108656700D01*
X130952200Y-108656700D02*
X130766000Y-108656700D01*
X155001000Y-97378600D02*
X153654600Y-98725000D01*
X153654600Y-98725000D02*
X153654600Y-100204200D01*
X153654600Y-100204200D02*
X149972800Y-103886000D01*
X149972800Y-103886000D02*
X148336000Y-103886000D01*
X144272000Y-97790000D02*
X144272000Y-98915300D01*
X144272000Y-98915300D02*
X143990700Y-98915300D01*
X143990700Y-98915300D02*
X142494000Y-100412000D01*
X142494000Y-100412000D02*
X142494000Y-103378000D01*
M02*
