M48
; DRILL file {KiCad 5.1.6-c6e7f7d~86~ubuntu18.04.1} date Fri Jul 10 20:36:48 2020
; FORMAT={-:-/ absolute / inch / decimal}
; #@! TF.CreationDate,2020-07-10T20:36:48+01:00
; #@! TF.GenerationSoftware,Kicad,Pcbnew,5.1.6-c6e7f7d~86~ubuntu18.04.1
; #@! TF.FileFunction,Plated,1,2,PTH
FMAT,2
INCH
T1C0.0157
T2C0.0217
T3C0.0295
T4C0.0315
T5C0.0320
T6C0.0394
T7C0.0400
T8C0.0433
T9C0.0827
%
G90
G05
T1
X5.2347Y-4.1988
T2
X5.1552Y-4.6406
X5.1804Y-4.05
X5.33Y-4.05
X5.3552Y-4.6406
X4.7252Y-4.6406
X4.7504Y-4.05
X4.9Y-4.05
X4.9252Y-4.6406
T3
X6.6774Y-3.6843
X6.7274Y-3.6343
X6.7274Y-3.7343
T4
X4.56Y-4.01
X4.56Y-4.11
X4.56Y-4.21
X5.61Y-4.07
X5.61Y-4.17
X5.11Y-3.64
X5.11Y-3.74
X5.11Y-3.84
X5.11Y-3.94
X5.41Y-3.64
X5.41Y-3.74
X5.41Y-3.84
X5.41Y-3.94
X5.74Y-4.09
X5.84Y-4.09
X7.01Y-3.64
X7.01Y-3.7384
X5.68Y-3.65
X5.68Y-3.75
X5.68Y-3.85
X5.68Y-3.95
X5.98Y-3.65
X5.98Y-3.75
X5.98Y-3.85
X5.98Y-3.95
X6.428Y-4.1338
X6.528Y-4.1338
X6.68Y-3.87
X6.7784Y-3.87
X5.553Y-3.6316
X5.553Y-3.73
X6.01Y-4.1588
X6.11Y-4.1588
X6.21Y-4.1588
X6.8816Y-4.16
X6.98Y-4.16
X4.25Y-4.27
X4.35Y-4.27
X6.88Y-3.93
X6.9784Y-3.93
X7.153Y-4.3588
X7.253Y-4.3588
X6.88Y-3.64
X6.88Y-3.7384
X5.55Y-3.86
X5.55Y-3.9584
X4.25Y-3.93
X4.35Y-3.93
X4.98Y-3.68
X4.98Y-3.78
X4.59Y-3.6916
X4.59Y-3.79
X7.06Y-4.5338
X7.06Y-4.6338
X5.49Y-4.07
X5.49Y-4.17
X4.46Y-3.69
X4.46Y-3.7884
X6.82Y-4.5316
X6.82Y-4.63
X6.91Y-4.34
X7.0084Y-4.34
X6.94Y-4.5316
X6.94Y-4.63
X6.65Y-4.36
X6.65Y-4.46
X6.65Y-4.56
T5
X6.678Y-4.2088
X6.778Y-4.2088
X6.678Y-4.1088
X6.778Y-4.1088
T6
X4.72Y-3.69
X4.72Y-3.8869
X4.85Y-3.6931
X4.85Y-3.89
X4.128Y-4.1088
X4.228Y-4.1088
X4.328Y-4.1088
X4.128Y-3.7588
X4.228Y-3.7588
X4.328Y-3.7588
T7
X7.178Y-4.0788
X7.178Y-4.1788
X7.278Y-4.0888
X7.278Y-4.1888
X7.378Y-4.0788
X7.378Y-4.1788
X7.478Y-4.0888
X7.478Y-4.1888
X7.578Y-4.0788
X7.578Y-4.1788
T8
X5.5524Y-4.3354
X5.5524Y-4.4338
X5.5524Y-4.5322
X4.0811Y-4.5088
X4.4158Y-4.5088
X4.5339Y-4.5088
X7.1721Y-4.4838
X7.2902Y-4.4838
X7.6248Y-4.4838
X6.1024Y-4.3354
X6.1024Y-4.4338
X6.1024Y-4.5322
X7.1721Y-3.7838
X7.2902Y-3.7838
X7.6248Y-3.7838
X6.1024Y-3.7354
X6.1024Y-3.8338
X6.1024Y-3.9322
T9
X5.828Y-4.2567
X5.828Y-4.611
X6.378Y-4.2567
X6.378Y-4.611
X6.378Y-3.6566
X6.378Y-4.011
T0
M30
